<?xml version="1.0" encoding="utf-8"?>
<!-- Generator: Adobe Illustrator 25.4.1, SVG Export Plug-In . SVG Version: 6.00 Build 0)  -->
<svg version="1.1" id="Layer_1" xmlns="http://www.w3.org/2000/svg" xmlns:xlink="http://www.w3.org/1999/xlink" x="0px" y="0px"
	 viewBox="0 0 965.5 749.5" style="enable-background:new 0 0 965.5 749.5;" xml:space="preserve">
<style type="text/css">
	.st0{fill:#F9F4F4;}
	.st1{fill:#FAC4C8;}
	.st2{fill:#EE202E;}
	.st3{fill:#F9EBEC;}
	.st4{fill:#B12D3A;}
	.st5{fill:#FDF9FA;}
	.st6{fill:#FDF9F9;}
	.st7{fill:#FDF8F9;}
	.st8{fill:#A51E2C;}
	.st9{fill:#A61F2D;}
	.st10{fill:#A71F2D;}
	.st11{fill:#A61E2C;}
	.st12{fill:#A51C2A;}
	.st13{fill:#A8212F;}
	.st14{fill:#B5323E;}
	.st15{fill:#A41C2A;}
	.st16{fill:#A8202D;}
	.st17{fill:#A51F2D;}
	.st18{fill:#A21120;}
	.st19{fill:#C4747D;}
	.st20{fill:#ED222F;}
	.st21{fill:#EA303D;}
	.st22{fill:#A5212F;}
</style>
<path class="st0" d="M822.4,473c2.7-8.5,5.3-17,8-25.5c3.3-10.3,6.5-20.7,9.9-31c3.9-12,7.9-24,11.8-36.1
	c6.2-19.3,12.4-38.6,18.6-57.8c3.7-11.5,7.4-23.1,11.2-34.6c5.6-17.6,11.3-35.2,16.9-52.7c2.1-6.5,3.9-13.1,6.1-19.6
	c2-5.8,1.1-11.5,0-17.2c-1.4-7.5-4.3-14.6-7.4-21.5c-4.1-9.4-9-18.5-14.3-27.3c-3.1-5.2-5.8-10.6-8.9-15.8c-3-5-6.2-9.8-9.3-14.7
	c-0.6-0.9-1-1.8-1.6-2.6c-1.8-2.9-3.7-5.9-5.5-8.8c-1.3-2.1-2.6-4.1-4-6.2c-1.7-2.6-3.2-5.3-5.1-7.7c-6.6-8.5-13.3-16.9-20-25.3
	c-1.3-1.6-2.9-2.9-4.5-4.2c-0.7-0.6-1.6-1-2.1-1.7c-3.2-4.1-7.5-6.7-11.9-9c-2.8-1.5-6.1-2.2-9.2-2.7c-8.9-1.4-17.9-2.5-26.9-3.8
	c-12.3-1.8-24.6-3.6-36.8-5.4c-12-1.8-24-3.5-36.1-5.3c-12-1.8-24-3.5-36.1-5.3c-14.2-2-28.4-4-42.6-6c-15.2-2.1-30.5-4.2-45.7-6.4
	c-10.7-1.5-21.5-3.2-32.2-4.8c-4.2-0.6-8.4-1.5-12.6-2c-7.2-0.8-14.4-0.3-21.6,1c-4.4,0.8-8.9,1.5-13.3,2.8
	c-6.6,1.9-13.5,3.4-19.6,7c-2.5,1.5-5.5,2.2-8.1,3.5c-2.8,1.4-5.4,2.9-8,4.6c-6.2,3.9-12.4,7.8-18.6,11.7c-1.3,0.8-2.7,1.4-4,2.3
	c-6.4,4-12.8,8.1-19.2,12.2c-0.4,0.3-0.8,0.7-1.3,0.9c-8.8,4.3-16.7,10.2-25.1,15.2c-8.2,4.9-16.1,10.1-24.2,15.1
	c-6.1,3.8-12.4,7.3-18.6,11.1c-5.3,3.2-10.4,6.7-15.6,10.1c-1.5,1-3.2,1.8-4.7,2.7c-6.7,4.3-13.1,9.2-20.2,12.8
	c-5.8,2.9-10.4,7.7-16.6,9.8c-1.4,0.5-2.5,1.8-3.8,2.6c-1.8,1.2-3.7,2.3-5.6,3.5c-1.8,1.1-3.5,2.1-5.3,3.2c-2.5,1.5-5.1,2.9-7.6,4.5
	c-3,1.8-5.8,3.8-8.8,5.6c-6.7,4.1-13.5,8.1-20.1,12.2c-5.2,3.3-10.4,6.7-15.6,10.1c-1,0.6-2,1.2-3,1.8c-2.9,1.8-5.9,3.7-8.8,5.5
	c-1.4,0.9-2.9,1.7-4.3,2.6c-2.6,1.6-5.2,3.3-7.8,5c-1.3,0.8-2.6,1.6-3.9,2.4c-2.7,1.7-5.4,3.5-8.2,5.2c-1.3,0.8-2.6,1.6-4,2.4
	c-2.6,1.6-5.2,3.3-7.8,5c-2,1.2-4,2.3-6,3.5c-1.2,0.7-2.5,1.4-3.6,2.2c-2.9,2.1-5.6,4.6-9.2,5.7c-1.3,0.4-2.4,1.5-3.5,2.4
	c-2.6,2-5,4.1-8.3,4.9c-0.2,0.1-0.5,0.2-0.7,0.3c-4.7,3-9.3,6-14,9c-4.6,2.9-9.2,5.7-13.8,8.6c-5.6,3.5-11.1,7-16.6,10.5
	c-0.4,0.3-0.8,0.7-1.3,0.9c-6.2,3.7-12.4,7.3-18.6,11c-5,3.1-9.8,6.8-15,9.5c-5.7,3-10.8,7-16.3,10.4c-5.1,3.2-9.9,6.9-14.1,11.3
	c-0.8,0.8-1.6,1.7-2.5,2.4c-5.6,4.1-10,9.3-14,14.8c-4,5.5-8.3,10.8-11.9,16.6c-2.8,4.6-4.9,9.6-7.1,14.6
	c-5.5,12.5-8.6,25.7-9.5,39.3c-1,17.1,1.6,33.7,6.3,50.1c3.4,11.8,8.1,23.1,13.6,34c4.4,8.6,8.4,17.4,14.4,25.1c1.3,1.6,2,3.6,3,5.4
	c0.2,0.3,0.2,0.8,0.4,1.1c3.5,5.4,7.1,10.8,10.6,16.2c1.5,2.3,2.9,4.5,4.4,6.8c1.7,2.6,3.4,5.2,5.1,7.8c0.8,1.3,1.6,2.6,2.4,3.9
	c1.7,2.7,3.5,5.4,5.2,8.1c1.2,1.8,2.3,3.7,3.5,5.5c2.7,4.2,5.3,8.5,8.1,12.7c4.4,6.9,9,13.8,13.4,20.8c4,6.4,7.8,13,11.8,19.5
	c2.7,4.4,5.5,8.7,8.2,13.1c2.6,4.3,5,8.7,7.7,12.9c3.3,5.2,6.8,10.3,10,15.6c3.4,5.5,6.5,11,9.8,16.6c0.1,0.2,0.2,0.5,0.3,0.7
	c2.9,4.6,5.7,9.2,8.6,13.7c1.3,2.1,2.7,4.1,4,6.2c3.7,6,7.5,12,11.2,18.1c3.7,6.2,7.4,12.4,11.1,18.6c1.7,2.9,3.5,5.7,5.5,8.4
	c6.4,8.6,12.7,17.3,19.3,25.7c4.9,6.1,10.2,12,16.3,17c3.8,3.1,7.1,6.8,11,9.7c5.6,4.1,11.4,7.9,17.4,11.4
	c8.3,4.9,17.1,8.6,26.3,11.3c10.2,3,20.6,4.5,31.3,4.8c14.1,0.4,27.8-1.7,41.2-5.6c6.1-1.8,12-4.6,17.9-7c3.2-1.3,6.4-2.6,9.5-4.1
	c3.4-1.7,6.8-3.7,10.1-5.6c2.4-1.4,4.7-3.1,7.1-4.7c3.2-2.1,6.4-4.3,9.7-6.4c5.7-3.7,11.5-7.3,17.3-11c0.9-0.5,1.8-1,2.7-1.6
	c2.8-1.8,5.7-3.5,8.5-5.3c1.3-0.8,2.6-1.6,4-2.4c2.6-1.6,5.2-3.3,7.8-5c1.3-0.8,2.6-1.6,3.9-2.4c2.7-1.7,5.4-3.4,8.2-5.2
	c1.3-0.8,2.6-1.6,3.9-2.4c2.7-1.7,5.4-3.5,8.2-5.2c1.2-0.8,2.4-1.5,3.6-2.2c2.8-1.8,5.6-3.6,8.5-5.4c1.5-1,3.1-1.9,4.6-2.8
	c6.6-4.2,13.3-8.4,19.9-12.6c4.1-2.6,8.3-5.1,12.5-7.7c5.1-3.2,10.3-6.4,15.4-9.6c6-3.7,12.1-7.3,18.2-11c1.3-0.8,2.6-1.7,3.9-2.5
	c2.3-1.4,4.6-2.7,7-4.1c0.9-0.5,1.8-1,2.6-1.6c3.4-2.6,6.9-4.8,10.7-6.8c5.3-2.8,10.2-6.5,15.3-9.8c2.2-1.4,4.3-2.8,6.5-4.2
	c2.5-1.6,5-3.2,7.5-4.8c1.5-1,3.1-1.9,4.6-2.8c3.9-2.4,7.9-4.9,11.8-7.3c7.3-4.5,14.7-9,22-13.6c5.1-3.2,10.1-6.7,15.2-9.9
	c6.7-4.2,13.4-8.1,20.1-12.3c5.5-3.4,10.8-7,16.2-10.5c1.1-0.7,2.2-1.3,3.3-2c2.7-1.7,5.4-3.4,8.2-5.1c1.3-0.8,2.6-1.6,3.9-2.4
	c2.7-1.7,5.4-3.5,8.2-5.2c1.7-1.1,3.5-2.2,5.2-3.3c4-2.5,8.1-5.1,12.1-7.6c4-2.5,8.1-5.1,12.1-7.6c5-3.1,10.1-6.1,15.2-9.2
	c4.6-2.9,9.1-5.8,13.7-8.7c6-3.8,12-7.6,17.9-11.5c1.8-1.2,3.5-2.6,5.2-4.1c1.9-1.7,3.8-3.5,5.7-5.2c4.3-4.1,8.6-8.1,12.7-12.4
	c3.1-3.3,5.9-6.8,8.4-10.5c3.1-4.7,5.7-9.8,8.6-14.7c0.6-1,0.6-2.7,2.6-2.3c-1.7,4.5-3.6,8.7-5.8,12.7c-3.2,5.8-6.8,11.4-10,17.2
	c-2.9,5.2-7.7,8.7-12.1,12.3c-9.5,7.8-19.5,15-29.3,22.3c-1,0.8-2.2,1.5-3.4,1.8c-4.8,1.2-8.5,4-12.3,6.9c-4.7,3.6-9.2,7.6-14.9,9.5
	c-3,1-5.4,2.8-7.9,4.7c-4.6,3.5-9.4,6.8-14.1,10.2c-0.4,0.3-0.9,0.6-1.4,0.7c-4.8,1-8,4.5-11.9,7c-5.4,3.4-10.2,7.8-16.5,9.8
	c-1,0.3-1.9,0.9-2.7,1.5c-8.2,5.7-15.7,12.4-25.2,16.2c-4.3,1.7-8,5.1-11.9,7.9c-3.7,2.7-7,6.2-11.9,7c-0.4,0.1-0.7,0.3-1,0.6
	c-3.4,2.9-7.4,5.2-11.1,7.7c-3.3,2.2-6.6,4.4-10.3,6c-2,0.9-3.8,2.2-5.6,3.4c-4.6,3.3-9.2,6.6-13.8,9.9c-1,0.7-2.2,1.4-3.4,1.8
	c-4.1,1.2-7.3,3.8-10.6,6.3c-2.8,2.1-5.8,3.8-8.8,5.6c-3.7,2.2-7.8,4-11.3,6.6c-6.3,4.7-13.1,8.7-19.8,12.6c-4.8,2.8-9.3,6-13.9,9
	c-3.4,2.1-6.8,4.1-10.2,6.2c-1.7,1-3.5,1.7-4.9,3c-4.4,4.1-9.9,6.5-15,9.4c-4.8,2.7-9.5,5.6-14,8.9c-4,2.9-8.3,5.7-12.7,8
	c-7.2,3.7-13.8,8.5-20.4,13c-1.6,1.1-3.3,1.9-5,2.9c-3,1.7-6,3.4-8.9,5.2c-3.3,2-6.4,4.3-9.7,6.3c-6.1,3.6-12.5,6.7-17.8,11.5
	c-0.8,0.7-1.8,1-2.6,1.5c-8.1,5-16.7,9.1-24,15.5c-1.8,1.6-4.2,2.8-6.5,3.2c-2.6,0.5-4.5,1.7-6.5,3.2c-1,0.8-2.2,1.4-3.3,2
	c-4.2,2.5-9,3.4-13.2,5.8c-3.4,2-7.3,3.3-11.1,4c-4.6,0.8-9,1.8-13.3,3.5c-1.2,0.4-2.5,0.4-3.8,0.5c-2.7,0.3-5.4,0.4-8.1,0.7
	c-3.1,0.3-6.3,1-9.4,1.1c-3.9,0.1-7.9,0-11.8-0.2c-4.1-0.2-8.4-0.3-12.4-1.1c-6.3-1.3-12.6-2.7-18.6-4.8c-5.5-1.9-11.4-3.1-16.3-6.6
	c-0.6-0.4-1.4-0.6-2.1-1c-3.9-2.1-7.9-4.2-11.8-6.5c-1.3-0.8-2.2-2.1-3.5-3c-4.1-2.8-8.5-5.3-12.3-8.4c-5.4-4.5-10.4-9.5-15.5-14.4
	c-1-1-1.9-2.1-2.8-3.2c-8.3-10.4-16.5-20.8-24.8-31.3c-2.4-3-4-6.5-5.9-9.9c-3.4-6-7.7-11.5-11.5-17.4c-2.3-3.6-4.1-7.4-6.3-11
	c-1.8-3.1-4.3-5.9-5.7-9.1c-1.9-4.3-4.5-8.1-7.2-11.9c-2.6-3.7-5.5-7.3-7-11.5c-1.4-3.9-3.8-6.9-6.1-10.1c-2-2.7-3.8-5.5-5.8-8.2
	c-1.7-2.4-3.4-4.9-3.7-8c-0.1-0.6-0.4-1.2-0.8-1.7c-2.9-4.1-5.7-8.3-8.8-12.3c-2.2-2.8-3.8-5.8-4.3-9.3c-0.1-0.8-0.7-1.6-1.2-2.3
	c-2.9-3.8-5.9-7.5-8.7-11.4c-1.5-2.2-2.8-4.6-4-7c-2.2-4.2-3.9-8.7-7.2-12.2c-2.1-2.3-4.1-4.7-5.8-7.3c-1.6-2.4-3.1-5.1-4-7.8
	c-0.7-2.1-1.5-4-2.9-5.8c-3.7-4.8-7.9-9.4-10.8-14.6c-3.3-6.1-6.2-12.4-10.9-17.7c-2-2.2-3.5-4.8-5.1-7.2c-1-1.5-1.8-3.1-2.5-4.7
	c-1.2-3-2.6-5.8-4.6-8.4c-3.3-4.3-6.4-8.8-9.5-13.2c-0.5-0.7-1-1.5-1.3-2.4c-1.5-5.3-5.1-9.5-7.8-14.1c-0.8-1.3-2-2.6-2.1-4
	c-0.7-6.2-6.2-10.4-6.4-16.7c0-0.1-0.2-0.2-0.2-0.3c-0.9-2.1-1.8-4.2-2.7-6.3c-0.4-1.1-0.6-2.2-1-3.3c-0.8-2.4-1.9-4.7-2.6-7.2
	c-0.9-3.1-1.2-6.4-2.5-9.3c-2.5-5.4-2.4-11.4-3.3-17c-1.3-7.8-2.1-15.8-0.7-23.9c0.9-5.4,0.4-11,1.9-16.4c0.7-2.7,1.5-5.4,1.9-8.2
	c1.1-8,4.9-15,8.1-22.2c1.7-3.7,3.6-7.3,5.7-10.8c2.8-4.5,5.8-8.9,8.8-13.3c1.6-2.3,3.4-4.5,5.2-6.7c1.7-1.9,3.3-4,5.3-5.6
	c11.8-9.5,23.7-18.9,35.6-28.3c1.4-1.1,3-2.1,4.5-2.9c5.7-3,11.3-6.1,16.3-10.3c2.3-1.9,4.8-3.4,7.9-3.8c1.1-0.1,2.2-0.8,3.1-1.4
	c4.6-3.4,8.9-7.1,13.6-10.3c2.7-1.9,5.8-3.1,8.7-4.7c1.9-1,3.9-2,5.7-3.2c4.5-3.1,8.5-6.9,13.3-9.3c8.3-4.1,15.9-8.9,23.2-14.5
	c1.5-1.1,3.4-1.6,5.2-2.4c1-0.5,2.2-0.7,3.1-1.4c5.2-3.7,10.2-7.5,15.4-11.1c1.8-1.2,3.8-2.1,5.9-2.7c2.3-0.6,4.3-1.5,6.2-3
	c3.7-3,7.4-6.1,11.3-8.9c2.4-1.7,5-3.4,7.8-4c2.4-0.6,4.2-1.6,6-3c2.7-2.2,5.4-4.4,8.2-6.5c2.2-1.6,4.4-3.4,6.9-4.2
	c5.3-1.5,9.3-4.8,13.5-8c2.7-2.2,5.6-4.2,8.6-6c3.5-2,7.3-3.5,10.9-5.6c3.2-1.9,6.4-4,9.2-6.3c3.1-2.5,6.4-4.3,10.1-5.6
	c0.6-0.2,1.2-0.4,1.8-0.7c3.8-2.6,7.7-5.1,11.3-8c3.2-2.5,6.5-4.6,10.4-5.8c1.2-0.4,2.2-1.2,3.3-2c4.4-3.1,8.8-6.3,13.2-9.4
	c0.5-0.4,1.1-0.6,1.7-0.9c7.2-2.7,13.1-7.5,19.3-11.9c3.7-2.6,7.1-5.6,11.7-6.5c0.7-0.2,1.4-0.6,2-1.1c4-2.9,7.8-5.9,11.9-8.7
	c2.9-1.9,6-3.3,9.1-4.9c0.8-0.4,1.7-0.6,2.5-1.1c3.8-2.6,7.6-5.4,11.4-7.9c2.3-1.5,4.9-2.8,7.3-4.2c2-1.1,4-2.3,6-3.5
	c2.9-1.8,5.8-3.7,8.8-5.6c1-0.6,2-1.2,2.9-1.9c2.6-2.2,5.4-4,8.7-4.9c1.2-0.3,2.5-1,3.4-1.8c6.9-6.2,15.3-9.9,23.1-14.7
	c2.5-1.6,4.9-3.4,7.5-4.7c6.3-3.1,12.8-6,19.2-8.9c6.9-3.2,14-5.6,21.5-7c4.7-0.8,9.3-2.1,14-2.2c7.3-0.2,14.7,0.3,22,0.7
	c2,0.1,3.9,1.1,5.9,1.4c8.7,1.2,17.4,2.2,26,3.5c6,0.9,11.9,2,17.8,3c6.3,1.1,12.7,1.1,19,2.2c6.5,1.1,13.2,1.4,19.6,3.3
	c0.6,0.2,1.3,0.2,1.9,0.3c5.5,0.6,11,1.1,16.4,1.9c8,1.1,16,2.2,24,3.4c4.1,0.6,8.2,1.1,12.2,1.7c7.7,1.3,15.4,2.8,23.1,4
	c13.1,1.9,26.4,3,39.4,5.5c9.9,1.9,19.9,2.3,29.7,4.6c7.6,1.8,15.6,2.2,23.4,3.2c6.9,0.8,13.4,2.4,19.4,6.7
	c5.1,3.7,9.8,7.5,13.6,12.4c11.2,14.4,23.1,28.2,33.5,43.3c2.1,3.1,4.3,6,5.4,9.7c0.3,1.2,1.2,2.3,1.9,3.3c2.8,4.1,5.8,8.2,8.6,12.4
	c0.4,0.6,0.9,1.3,1.1,2c1,3.7,3.2,6.6,5.2,9.8c3,4.7,6.9,9,8,14.8c4.2,5.2,5.7,11.8,8.6,17.6c2.1,4.3,3.5,9.1,4.9,13.8
	c0.8,2.7,1.1,5.5,2,8.1c1.5,4.5,1.8,9.2,0.9,13.7c-1.2,5.9-3.4,11.6-5.2,17.3c-1.8,5.5-3.8,10.9-5.5,16.5c-2,6.1-3.8,12.3-5.7,18.4
	c-1.4,4.5-3,9.1-4.3,13.6c-1.8,5.7-3.3,11.6-5.2,17.3c-2.8,8.6-5.9,17-8.6,25.6c-1.9,6-3.4,12.1-5.3,18.1c-2.2,6.9-4.6,13.6-7,20.4
	c-0.5,1.6-1.3,3.1-1.8,4.7c-2.9,9.3-5.7,18.7-8.7,28c-0.8,2.6-2,5.2-2.7,7.9c-2.1,7.4-4.6,14.8-7,22.1c-4.2,12.7-8.4,25.4-12.6,38.1
	c-0.6,2-1.1,4-2,5.8c-2,3.7-4.3,7.3-6.4,10.9C821.6,476.2,821.9,474.6,822.4,473z"/>
<path class="st1" d="M832.7,490.8c0,0,0,0-0.3,0c-2.1-0.1-2.1,1.5-2.7,2.6c-2.8,4.9-5.5,10-8.6,14.7c-2.5,3.7-5.3,7.3-8.4,10.5
	c-4,4.3-8.4,8.3-12.7,12.4c-1.9,1.8-3.7,3.6-5.7,5.2c-1.7,1.4-3.3,2.9-5.2,4.1c-5.9,3.9-11.9,7.7-17.9,11.5
	c-4.6,2.9-9.1,5.8-13.7,8.7c-5,3.1-10.1,6.1-15.2,9.2c-4.1,2.5-8.1,5.1-12.1,7.6c-4,2.5-8.1,5.1-12.1,7.6c-1.7,1.1-3.5,2.2-5.2,3.3
	c-2.7,1.7-5.4,3.5-8.2,5.2c-1.3,0.8-2.6,1.6-3.9,2.4c-2.7,1.7-5.4,3.4-8.2,5.1c-1.1,0.7-2.2,1.3-3.3,2c-5.4,3.5-10.7,7.1-16.2,10.5
	c-6.7,4.2-13.4,8.1-20.1,12.3c-5.1,3.2-10.1,6.7-15.2,9.9c-7.3,4.6-14.7,9.1-22,13.6c-3.9,2.4-7.9,4.9-11.8,7.3
	c-1.5,0.9-3.1,1.8-4.6,2.8c-2.5,1.6-5,3.2-7.5,4.8c-2.2,1.4-4.3,2.8-6.5,4.2c-5.1,3.3-10,7-15.3,9.8c-3.8,2-7.4,4.2-10.7,6.8
	c-0.8,0.6-1.8,1.1-2.6,1.6c-2.3,1.4-4.7,2.7-7,4.1c-1.3,0.8-2.6,1.7-3.9,2.5c-6,3.7-12.1,7.3-18.2,11c-5.2,3.2-10.3,6.4-15.4,9.6
	c-4.2,2.6-8.3,5.1-12.5,7.7c-6.6,4.2-13.3,8.4-19.9,12.6c-1.5,1-3.1,1.9-4.6,2.8c-2.8,1.8-5.6,3.6-8.5,5.4c-1.2,0.8-2.4,1.5-3.6,2.2
	c-2.7,1.7-5.4,3.5-8.2,5.2c-1.3,0.8-2.6,1.6-3.9,2.4c-2.7,1.7-5.4,3.4-8.2,5.2c-1.3,0.8-2.6,1.6-3.9,2.4c-2.6,1.6-5.2,3.3-7.8,5
	c-1.3,0.8-2.6,1.6-4,2.4c-2.8,1.8-5.7,3.5-8.5,5.3c-0.9,0.5-1.8,1-2.7,1.6c-5.8,3.6-11.5,7.3-17.3,11c-3.3,2.1-6.5,4.3-9.7,6.4
	c-2.4,1.6-4.7,3.2-7.1,4.7c-3.3,2-6.7,3.9-10.1,5.6c-3.1,1.5-6.3,2.8-9.5,4.1c-5.9,2.4-11.8,5.2-17.9,7c-13.4,3.9-27.1,6-41.2,5.6
	c-10.7-0.3-21.1-1.9-31.3-4.8c-9.2-2.7-18-6.4-26.3-11.3c-6-3.5-11.8-7.3-17.4-11.4c-3.9-2.9-7.3-6.5-11-9.7
	c-6.1-5.1-11.4-10.9-16.3-17c-6.7-8.4-13-17.1-19.3-25.7c-2-2.7-3.8-5.5-5.5-8.4c-3.7-6.2-7.4-12.4-11.1-18.6
	c-3.7-6.1-7.4-12-11.2-18.1c-1.3-2.1-2.7-4.1-4-6.2c-2.9-4.6-5.8-9.1-8.6-13.7c-0.1-0.2-0.2-0.5-0.3-0.7c-3.2-5.5-6.4-11.1-9.8-16.6
	c-3.2-5.3-6.7-10.4-10-15.6c-2.7-4.3-5.1-8.7-7.7-12.9c-2.7-4.4-5.5-8.7-8.2-13.1c-4-6.5-7.7-13.1-11.8-19.5
	c-4.4-7-8.9-13.9-13.4-20.8c-2.7-4.2-5.4-8.5-8.1-12.7c-1.2-1.8-2.3-3.7-3.5-5.5c-1.7-2.7-3.5-5.4-5.2-8.1c-0.8-1.3-1.6-2.7-2.4-3.9
	c-1.7-2.6-3.4-5.2-5.1-7.8c-1.5-2.3-2.9-4.5-4.4-6.8c-3.5-5.4-7.1-10.8-10.6-16.2c-0.2-0.3-0.2-0.7-0.4-1.1c-1-1.8-1.8-3.8-3-5.4
	c-6-7.7-10-16.6-14.4-25.1c-5.5-10.9-10.3-22.2-13.6-34c-4.7-16.4-7.4-33-6.3-50.1c0.8-13.6,3.9-26.8,9.5-39.3
	c2.2-4.9,4.2-10,7.1-14.6c3.6-5.8,7.8-11.1,11.9-16.6c4.1-5.5,8.5-10.7,14-14.8c0.9-0.7,1.7-1.6,2.5-2.4c4.1-4.4,8.9-8.1,14.1-11.3
	c5.5-3.4,10.5-7.3,16.3-10.4c5.2-2.8,9.9-6.4,15-9.5c6.1-3.8,12.4-7.4,18.6-11c0.4-0.3,0.8-0.6,1.3-0.9c5.5-3.5,11.1-7,16.6-10.5
	c4.6-2.9,9.2-5.7,13.8-8.6c4.7-3,9.3-6,14-9c0.2-0.1,0.5-0.3,0.7-0.3c3.3-0.8,5.7-3,8.3-4.9c1.1-0.9,2.2-2,3.5-2.4
	c3.6-1.1,6.3-3.5,9.2-5.7c1.1-0.8,2.4-1.5,3.6-2.2c2-1.2,4-2.3,6-3.5c2.6-1.6,5.2-3.3,7.8-5c1.3-0.8,2.6-1.6,4-2.4
	c2.7-1.7,5.4-3.4,8.2-5.2c1.3-0.8,2.6-1.6,3.9-2.4c2.6-1.7,5.2-3.3,7.8-5c1.4-0.9,2.8-1.7,4.3-2.6c2.9-1.8,5.9-3.7,8.8-5.5
	c1-0.6,2-1.2,3-1.8c5.2-3.4,10.3-6.8,15.6-10.1c6.7-4.2,13.4-8.1,20.1-12.2c3-1.8,5.8-3.8,8.8-5.6c2.5-1.6,5.1-3,7.6-4.5
	c1.8-1,3.5-2.1,5.3-3.2c1.9-1.1,3.7-2.3,5.6-3.5c1.3-0.8,2.4-2.2,3.8-2.6c6.2-2.1,10.8-6.9,16.6-9.8c7.1-3.6,13.5-8.5,20.2-12.8
	c1.5-1,3.2-1.7,4.7-2.7c5.2-3.3,10.3-6.8,15.6-10.1c6.1-3.8,12.4-7.3,18.6-11.1c8.1-5,16.1-10.2,24.2-15.1
	c8.4-5,16.3-10.9,25.1-15.2c0.5-0.2,0.8-0.6,1.3-0.9c6.4-4.1,12.8-8.2,19.2-12.2c1.3-0.8,2.7-1.4,4-2.3c6.2-3.9,12.4-7.9,18.6-11.7
	c2.6-1.6,5.3-3.2,8-4.6c2.6-1.3,5.6-2,8.1-3.5c6.1-3.6,12.9-5.1,19.6-7c4.3-1.3,8.8-2,13.3-2.8c7.1-1.3,14.4-1.8,21.6-1
	c4.2,0.5,8.4,1.4,12.6,2c10.7,1.6,21.5,3.2,32.2,4.8c15.2,2.2,30.5,4.3,45.7,6.4c14.2,2,28.4,4,42.6,6c12,1.7,24,3.5,36.1,5.3
	c12,1.8,24,3.5,36.1,5.3c12.3,1.8,24.5,3.6,36.8,5.4c9,1.3,18,2.4,26.9,3.8c3.1,0.5,6.4,1.3,9.2,2.7c4.4,2.3,8.8,4.9,11.9,9
	c0.5,0.7,1.4,1.1,2.1,1.7c1.5,1.4,3.2,2.7,4.5,4.2c6.7,8.4,13.4,16.8,20,25.3c1.9,2.4,3.4,5.1,5.1,7.7c1.3,2,2.7,4.1,4,6.2
	c1.9,2.9,3.7,5.9,5.5,8.8c0.5,0.9,1,1.8,1.6,2.6c3.1,4.9,6.4,9.7,9.3,14.7c3.1,5.2,5.8,10.6,8.9,15.8c5.3,8.8,10.2,17.9,14.3,27.3
	c3,6.9,6,14,7.4,21.5c1.1,5.7,2,11.4,0,17.2c-2.2,6.5-4.1,13.1-6.1,19.6c-5.6,17.6-11.2,35.2-16.9,52.7
	c-3.7,11.6-7.4,23.1-11.2,34.6c-6.2,19.3-12.4,38.6-18.6,57.8c-3.9,12-7.9,24-11.8,36.1c-3.3,10.3-6.6,20.6-9.9,31
	c-2.7,8.5-5.3,17-8,25.5C831.9,487.7,831.7,489.3,832.7,490.8 M13.3,453c3,8.5,6.3,17,10.1,25.2c3.1,6.8,7.1,13.2,10.8,19.7
	c3.4,5.9,7.1,11.7,10.7,17.5c4,6.3,8.1,12.6,12.1,19c4.2,6.5,8.4,13.1,12.5,19.6c4.5,7.1,8.9,14.2,13.4,21.3
	c4.5,7.2,9.1,14.4,13.7,21.6c3.8,6,7.7,11.9,11.5,18c3.1,4.9,6,10,9,14.9c4.4,7.3,8.9,14.5,13.4,21.8c7.1,11.5,14.3,23.1,21.4,34.6
	c5.3,8.7,10.5,17.5,15.8,26.2c3.8,6.3,8.1,12.3,11.7,18.7c7.8,13.7,17.9,25.7,28.1,37.5c9.8,11.4,21.4,20.9,34.2,29
	c12.3,7.7,25.4,13.3,39.6,16.3c8.5,1.8,17.1,2.6,25.8,2.5c15.6,0,30.6-3.1,45.1-8.5c6.9-2.6,13.4-5.9,20.1-9
	c8.2-3.7,15.3-9.1,22.7-14c5.6-3.7,11.4-7.1,17.1-10.6c7.8-4.9,15.5-9.7,23.3-14.6c12.2-7.6,24.3-15.3,36.5-22.8
	c9.8-6.1,19.6-12,29.4-18c5.7-3.5,11.3-7.3,17-10.9c5.9-3.7,11.9-7.3,17.8-11c5.9-3.7,11.8-7.4,17.7-11.2c6-3.8,12.1-7.5,18.1-11.3
	c7.4-4.7,14.9-9.4,22.3-14c5.9-3.7,11.9-7.3,17.8-11c6.5-4.1,12.8-8.2,19.3-12.3c5.5-3.4,11-6.8,16.5-10.2
	c6.1-3.8,12.3-7.7,18.4-11.5c7.2-4.5,14.5-9,21.7-13.5c5.3-3.3,10.4-6.7,15.7-10c7-4.4,14-8.8,21-13.2c6.5-4.1,12.9-8.2,19.4-12.2
	c6.7-4.2,13.4-8.3,20.1-12.5c5.6-3.5,11.1-7.1,16.7-10.6c7.6-4.8,14.3-10.7,21-16.5c6.3-5.5,12.1-11.6,16.7-18.7
	c3.1-4.9,6.5-9.7,9-14.9c2.2-4.6,3.5-9.7,5.1-14.6c4.1-12.7,8.2-25.4,12.3-38c6-18.6,12.1-37.2,18.1-55.8
	c8.2-25.5,16.4-51,24.6-76.5c7.4-23.1,14.8-46.3,22.3-69.5c0.9-3,1.8-5.9,2.8-8.9c1.9-5.5,2-11.1,0.8-16.8
	c-1.9-9.6-5.4-18.6-9.7-27.3c-5.2-10.4-10.7-20.6-16.4-30.8c-3.7-6.5-7.8-12.8-11.8-19.1c-5.7-8.9-11.4-17.9-17.3-26.7
	c-3.6-5.4-7.5-10.5-11.4-15.7c-6.2-8.2-13.4-15.4-21.4-21.9c-4-3.2-8.7-5.5-14-6.3c-19.9-2.8-39.7-5.7-59.6-8.6
	c-11.1-1.6-22.3-3.3-33.4-4.9c-22.8-3.3-45.6-6.7-68.4-10c-10.4-1.5-20.8-2.8-31.2-4.3c-21.5-3-43-6.1-64.6-9.1
	c-6.1-0.9-12.3-1.9-18.4-2.2c-11-0.5-21.6,1.7-32.1,4.8c-9.5,2.7-18.4,6.9-27.1,11.4c-6.4,3.3-12.4,7.5-18.5,11.3
	c-12.1,7.5-24.1,15.1-36.2,22.5c-9.6,5.9-19.2,11.7-28.8,17.6c-5.6,3.5-11.1,7.1-16.7,10.6c-5.9,3.7-11.9,7.2-17.9,10.9
	c-5.6,3.5-11.2,7-16.7,10.5c-5.4,3.3-10.8,6.6-16.2,10c-7.4,4.6-14.7,9.2-22.1,13.7c-5.4,3.3-10.8,6.5-16.2,9.9
	c-5.6,3.5-11.2,7-16.8,10.5c-6.8,4.2-13.7,8.4-20.5,12.6c-5.2,3.2-10.3,6.5-15.4,9.7c-7,4.4-14.1,8.7-21.1,13
	c-6.6,4.1-13.1,8.4-19.6,12.5c-10.3,6.4-20.7,12.7-31,19.2c-6,3.8-11.9,7.7-18,11.5c-5.5,3.4-11,6.7-16.5,10.2
	c-5.9,3.7-11.8,7.4-17.7,11.1c-6.4,4-12.7,7.9-19.1,11.9c-4.7,2.9-9.4,5.9-14.3,8.5c-10.3,5.6-19.4,12.9-28.3,20.4
	c-5.4,4.6-10.2,9.9-14.8,15.3c-4.9,5.7-9.3,11.8-13.1,18.3c-8.8,14.8-14.1,30.7-15.9,47.9C3.5,413.5,6.4,433.5,13.3,453z"/>
<path class="st2" d="M200.8,760.1c9.8,11.4,21.4,20.9,34.2,29c12.3,7.7,25.4,13.3,39.6,16.3c8.5,1.8,17.1,2.6,25.8,2.5
	c15.6,0,30.6-3.1,45.1-8.5c6.9-2.6,13.4-5.9,20.1-9c8.2-3.7,15.3-9.1,22.7-14c5.6-3.7,11.4-7.1,17.1-10.6
	c7.8-4.9,15.5-9.7,23.3-14.6c12.2-7.6,24.3-15.3,36.5-22.8c9.8-6.1,19.6-12,29.4-18c5.7-3.5,11.3-7.3,17-10.9
	c5.9-3.7,11.9-7.3,17.8-11c5.9-3.7,11.8-7.4,17.7-11.2c6-3.8,12.1-7.5,18.1-11.3c7.4-4.7,14.9-9.4,22.3-14c5.9-3.7,11.9-7.3,17.8-11
	c6.5-4.1,12.9-8.2,19.3-12.3c5.5-3.4,11-6.8,16.5-10.2c6.1-3.8,12.3-7.7,18.4-11.5c7.2-4.5,14.5-9,21.7-13.5
	c5.2-3.3,10.4-6.7,15.7-10c7-4.4,14-8.8,21-13.2c6.5-4.1,12.9-8.2,19.4-12.2c6.7-4.2,13.4-8.3,20.1-12.5c5.6-3.5,11.1-7.1,16.7-10.6
	c7.6-4.8,14.3-10.7,21-16.5c6.3-5.5,12.1-11.6,16.7-18.7c3.1-4.9,6.5-9.7,9-14.9c2.2-4.6,3.5-9.7,5.1-14.6
	c4.1-12.7,8.2-25.4,12.3-38c6-18.6,12.1-37.2,18.1-55.7c8.2-25.5,16.4-51,24.6-76.5c7.4-23.1,14.8-46.3,22.3-69.4
	c0.9-3,1.8-6,2.8-8.9c1.9-5.5,2-11.1,0.8-16.8c-1.9-9.6-5.4-18.6-9.7-27.3c-5.2-10.4-10.7-20.6-16.4-30.8
	c-3.7-6.5-7.8-12.8-11.8-19.1c-5.7-8.9-11.4-17.9-17.3-26.7c-3.6-5.4-7.5-10.5-11.4-15.7c-6.2-8.2-13.4-15.4-21.4-21.9
	c-4-3.2-8.7-5.5-14-6.3c-19.9-2.8-39.7-5.7-59.6-8.6c-11.1-1.6-22.3-3.3-33.4-4.9c-22.8-3.3-45.6-6.7-68.4-10
	c-10.4-1.5-20.8-2.8-31.2-4.3c-21.5-3-43-6.1-64.6-9.1c-6.1-0.9-12.3-1.9-18.4-2.2c-11-0.5-21.6,1.7-32.1,4.8
	c-9.5,2.7-18.4,6.9-27.1,11.4c-6.4,3.3-12.4,7.5-18.5,11.3C439.4,53,427.4,60.6,415.3,68c-9.6,5.9-19.2,11.7-28.8,17.6
	c-5.6,3.5-11.1,7.1-16.7,10.6c-5.9,3.7-11.9,7.2-17.9,10.9c-5.6,3.5-11.1,7-16.7,10.5c-5.4,3.4-10.8,6.6-16.2,10
	c-7.4,4.6-14.7,9.2-22.1,13.7c-5.4,3.3-10.8,6.5-16.2,9.9c-5.6,3.5-11.2,7-16.8,10.5c-6.8,4.2-13.7,8.4-20.5,12.6
	c-5.2,3.2-10.3,6.5-15.4,9.7c-7,4.4-14.1,8.7-21.1,13.1c-6.6,4.1-13.1,8.4-19.6,12.4c-10.3,6.4-20.7,12.7-31,19.2
	c-6,3.8-12,7.7-18,11.5c-5.5,3.4-11,6.8-16.5,10.2c-5.9,3.7-11.8,7.4-17.7,11.1c-6.4,4-12.7,7.9-19.1,11.9
	c-4.7,2.9-9.4,5.9-14.3,8.5c-10.3,5.6-19.4,12.9-28.3,20.4c-5.4,4.6-10.2,9.9-14.8,15.3c-4.9,5.7-9.2,11.8-13.1,18.3
	c-8.8,14.8-14.1,30.7-15.9,48.1c-2,21,0.9,41,7.8,60.5c3,8.5,6.3,17,10.1,25.2c3.1,6.8,7.1,13.2,10.8,19.7
	c3.4,5.9,7.1,11.7,10.7,17.5c4,6.3,8.1,12.6,12.1,19c4.2,6.5,8.4,13.1,12.5,19.6c4.5,7.1,8.9,14.2,13.4,21.4
	c4.5,7.2,9.1,14.4,13.7,21.6c3.8,6,7.7,11.9,11.5,18c3.1,4.9,6,10,9,14.9c4.4,7.3,8.9,14.5,13.4,21.8c7.1,11.5,14.3,23.1,21.4,34.6
	c5.3,8.7,10.5,17.5,15.8,26.2c3.9,6.3,8.1,12.4,11.7,18.7C180.5,736.3,190.5,748.3,200.8,760.1z M685.7,249.9
	c-5.4-7.1-8.6-15.2-9.9-24.1c-1.7-11.7,0.4-22.8,6.1-33c8.1-14.2,20.4-23.1,36.8-25.8c19-3.2,34.9,2.8,48,16.7
	c7.5,8,11.4,17.7,12.8,28.5c1.5,11.7-1,22.6-6.7,32.8c-4.1,7.2-9.9,12.8-16.8,17.4c-9,6-19,8.6-29.7,8.4c-8.6-0.1-16.5-2.6-24.6-6.8
	C695.3,260.3,690,255.6,685.7,249.9z"/>
<path class="st3" d="M698.6,259.7c-6.5-3.8-11.8-8.5-16.1-14.2c-5.4-7.1-8.6-15.2-9.9-24.1c-1.7-11.7,0.4-22.8,6.1-33
	c8.1-14.2,20.4-23.1,36.8-25.8c19-3.2,34.9,2.8,48,16.7c7.5,8,11.4,17.7,12.8,28.5c1.5,11.7-1,22.6-6.7,32.8
	c-4.1,7.2-9.9,12.8-16.8,17.4c-9,6-19,8.6-29.7,8.4C714.4,266.2,706.4,263.8,698.6,259.7 M728.6,259.8c7.2-0.5,14-3,20.2-6.7
	c6.7-4,11.6-9.9,15.4-16.5c4.1-7,5.6-14.9,5.6-23.2c0-7.7-2.5-14.6-5.6-21.4c-1.2-2.6-1.9-5.5-4.2-7.3c-4.9-3.8-9-8.5-14.9-11.3
	c-5.4-2.5-10.8-4.2-16.5-4.9c-9.7-1.1-18.7,1-27.3,6c-7.5,4.3-12.8,10.5-17.2,17.3c-2.5,3.8-3.7,8.8-4.6,13.4
	c-1.3,6.3-0.9,12.7,0,19.2c0.5,3.3,1.9,6.1,3.4,8.9c0.9,1.6,1.7,3.2,2.3,4.9c1.3,3.8,3.3,6.8,7.1,8.6c2.1,1,4,2.8,5.6,4.7
	c1.6,1.8,3.5,3,5.7,3.8C711.9,258.9,720.2,260.3,728.6,259.8z"/>
<path class="st4" d="M290.8,709.6c0.3-0.8,0.9-1.6,1.8-2.1c3.5-1.8,7-3.4,10.9-5c-0.3,0.8-0.9,1.7-1.8,2.1
	C298.2,706.4,294.6,708,290.8,709.6z"/>
<path class="st4" d="M278.3,713.3c1.9-1.6,4.2-2.3,7-1.7C283.2,712.4,280.9,712.9,278.3,713.3z"/>
<path class="st4" d="M186.4,636.3c1.4,1.2,2.8,2.7,4.3,4.6C188.6,640.2,187.1,638.7,186.4,636.3z"/>
<path class="st4" d="M307.3,700.8c0.3-2.2,0.6-2.5,4.8-4.6C310.8,697.7,309.2,699.2,307.3,700.8z"/>
<path class="st4" d="M180.2,623.5c0.7,0.9,1.3,1.9,1.7,3.3C181.1,625.9,180.6,624.8,180.2,623.5z"/>
<path class="st4" d="M314.3,695.2c-0.8-1.9,0.6-2.8,2.3-3.8C317.4,693.2,315.5,693.8,314.3,695.2z"/>
<path class="st4" d="M178.6,608.6c0.3,1,0.3,2.2,0.1,3.6C178.5,611.1,178.4,610,178.6,608.6z"/>
<path class="st4" d="M192.1,642.9c0.9,0.4,1.8,0.9,2.6,1.7C193.9,644.3,193,643.7,192.1,642.9z"/>
<path class="st4" d="M178.7,615.4c0.4,0.9,0.6,2.1,0.7,3.5C179.1,618,178.8,616.8,178.7,615.4z"/>
<path class="st4" d="M273.2,714.6c0-1.7,1-1.2,2.2-0.7C274.9,714.3,274.2,714.5,273.2,714.6z"/>
<path class="st4" d="M268.4,715.3c0.5-0.2,1.1-0.1,2,0.1C269.8,715.6,269.2,715.6,268.4,715.3z"/>
<path class="st4" d="M178.8,605.6c0.2,0.4,0.3,0.9,0.2,1.6C178.8,606.8,178.7,606.2,178.8,605.6z"/>
<g>
	<path class="st5" d="M325.4,429.9c-0.9-0.4-1.8-0.9-2.8-1.1c-19.6-3.2-35.3-13-47.7-27.6c-16.4-19.4-22.7-41.7-17.4-66.7
		c3.2-14.9,10.6-27.8,21.6-38.8c12-12,26.3-20.3,43-24.3c18.3-4.4,36.1-2.6,53.6,5.5c13.3,7.4,24.1,16.5,32.1,28.8
		c6.2,9.6,10.4,20,12.4,31.2c2.2,12.4,1.2,24.7-3,36.8c-5.8,16.9-16.4,30.4-31.4,40.5c-6.2,4.2-13.1,7.5-20,10.4
		c-9,3.9-18.7,5.4-28.5,5.4C333.4,430.1,329.4,430,325.4,429.9 M333.1,392.9c14.3,2.8,26.9-0.5,37.3-10.8c11-10.9,14-24.1,10.8-38.7
		c-2.3-10.6-7.7-19.6-15.9-26.7c-4-3.5-8.3-6.8-14.2-8.3c-7.7-3-15.6-3.5-23.7-1.8c-20.1,4.1-34,22.9-32.6,42.4
		c1.2,16.9,9.8,29.6,24.1,38.6C323,390.1,327.4,392.7,333.1,392.9z"/>
	<path class="st6" d="M185.5,544.3c-0.6,0.2-1.1,0.3-1.7,0.6c-3.2,1.4-3.5,1.5-5.5-1.2c-4.4-6.1-8.7-12.3-12.9-18.5
		c-5.3-7.6-10.6-15.2-15.8-22.9c-5.2-7.5-10.2-15.1-15.4-22.7c-9.4-13.8-18.8-27.5-28.3-41.2c-3.5-5-7-10-10.5-14.9
		c-2.4-3.5-2.2-4.1,1.4-6.5c7.5-4.9,15-9.9,22.4-14.9c5.6-3.9,5.6-3.9,9.7,2.2c0.8,1.3,1.2,2.1,1.7,2.8
		c8.7,12.6,17.4,25.3,26.1,37.9c3.1,4.5,3.9,4.6,8.2,1.2c0.3-0.3,0.5-0.7,0.7-1.1c1.6-0.8,3.2-1.5,4.7-2.4
		c10.8-7.1,21.6-14.3,32.4-21.4c0.9-0.6,1.6-1.3,2.5-1.9c1.5-1.1,1.6-2.3,0.7-3.8c-1.7-2.5-3.5-5-5.2-7.5
		c-8.6-12.5-17.2-25.1-25.8-37.6c-1.8-2.6-1.8-3.9,0.6-5.5c9.2-6.1,18.5-12.1,27.7-18.1c0.2-0.1,0.6-0.1,1.4-0.3
		c1,1.2,2.2,2.5,3.8,4.5c3.4,5.1,6.4,9.7,9.5,14.3c7.7,11.2,15.5,22.4,23.2,33.6c4.8,6.9,9.4,13.9,14.2,20.8
		c7.7,11.2,15.6,22.4,23.3,33.6c3.2,4.6,6.5,9.3,9.6,14c4.1,6.2,4,6.2-2.4,10.3c-6.7,4.3-13.3,8.7-19.9,13.1
		c-0.8,0.5-1.4,1.4-2.1,2.1c-3.9,0.9-4,1-6.1-2.1c-8.8-12.8-17.6-25.7-26.7-39c-1.2-1.8-2-3.2-3-4.4c-1.7-2.1-2.4-2.2-4.9-0.8
		c-2.9,1.7-5.8,3.5-8.6,5.4c-7.6,5-15.2,10.1-22.8,15.2c-4.2,2.8-8.4,5.8-12.9,8.8c0.7,1.4,1.2,2.4,1.8,3.3
		c4.8,7.1,9.6,14.2,14.4,21.2c5.1,7.4,10.3,14.8,15.3,22.2c2,2.9,1.9,3.3-0.9,5.3c-3.5,2.5-7.1,4.7-10.6,7.1
		C194.2,538,189.9,541.2,185.5,544.3z"/>
	<path class="st6" d="M442.9,595.2c-3.9-3.3-7.8-6.7-12.1-10.5c-3-2.7-5.6-5-8.3-7.2c-3-2.4-3.4-2.5-6.6-0.4
		c-7.7,4.9-15.3,9.9-22.8,14.9c-2.5,1.7-4.9,3.6-7.7,5.5c-0.6,0.4-0.9,0.6-1.6,1c-1.4,0.6-2.5,1.1-3.4,1.9c-2.3,1.8-2.3,2.7-0.7,6.1
		c0.2,0.7,0.4,1,0.5,1.7c2.2,7.3,4.5,14.3,6.8,21.3c1.4,4.4,1.4,4.5-2.5,7.1c-4.5,3-8.9,6.2-13.6,9.4c-0.6,0.4-0.9,0.6-1.6,1
		c-3.2,2.2-6.1,4.4-9,6.5c-1.1,0.4-2.1,0.8-3.5,1.3c-0.4,0-0.7,0-0.7,0l0,0.3c-0.2-0.2-0.4-0.5-0.8-1.2c-0.5-1.1-0.8-1.7-1.1-2.3
		c-0.1-0.7-0.3-1.5-0.5-2.8c-0.6-2-1.1-3.5-1.6-4.9c-0.1-0.7-0.3-1.5-0.5-2.8c-0.6-2-1.1-3.4-1.6-4.9c-0.1-0.8-0.2-1.5-0.5-2.8
		c-0.7-2.3-1.3-4-1.9-5.7c-0.1-0.7-0.2-1.5-0.5-2.8c-0.6-2-1.1-3.5-1.6-4.9c-0.5-1.9-0.9-3.8-1.5-6.1c-0.3-0.8-0.5-1.2-0.7-1.6
		c0-0.5,0-1-0.1-1.9c-0.3-0.8-0.6-1.2-0.8-1.5c-0.1-0.8-0.2-1.5-0.4-2.7c-0.3-0.8-0.5-1.2-0.7-1.6c-0.4-1.9-0.9-3.8-1.4-6.2
		c-0.6-2-1.1-3.4-1.6-4.9c-0.2-0.8-0.3-1.5-0.5-2.8c-0.6-2-1.1-3.5-1.6-4.9c-0.2-1-0.5-2-0.8-3.6c-0.6-2-1.1-3.5-1.6-4.9
		c-0.1-0.7-0.3-1.5-0.5-2.8c-0.6-2-1.1-3.5-1.7-4.9c-0.1-0.8-0.3-1.5-0.5-2.8c-0.6-2-1.1-3.5-1.6-5c-0.1-0.7-0.3-1.5-0.5-2.8
		c-0.6-2-1.1-3.5-1.6-4.9c-0.1-0.7-0.2-1.5-0.5-2.8c-0.7-2.3-1.3-4-1.9-5.7c0-0.5-0.1-1-0.2-2c-0.7-2.3-1.3-4-1.9-5.7
		c0-0.5-0.1-1-0.2-1.9c-0.4-0.8-0.6-1.1-0.9-1.5c-0.1-0.8-0.2-1.5-0.4-2.7c-0.3-0.8-0.5-1.2-0.7-1.6c0-0.5,0-1-0.1-1.9
		c-0.3-0.8-0.6-1.2-0.8-1.5c-0.1-0.8-0.3-1.5-0.5-2.7c-0.3-0.8-0.5-1.2-0.7-1.6c0-0.5,0-1-0.1-1.9c-0.3-0.8-0.6-1.2-0.8-1.5
		c-0.1-0.7-0.3-1.5-0.5-2.7c-0.3-1.1-0.6-1.8-0.9-2.4c-0.4-1.6-0.8-3.3-1.2-5.4c-0.6-2-1.1-3.4-1.6-4.9c-0.1-1.3-0.2-2.5-0.1-4.2
		c0.5-0.7,0.7-1.1,0.9-1.4c0.9-0.5,1.9-1,3.3-1.8c1.1-1,1.8-1.6,2.4-2.3c2-1.1,3.9-2.2,6.4-3.5c0.7-0.6,1-0.9,1.3-1.2
		c0.7-0.4,1.4-0.7,2.6-1.4c1.4-1.1,2.3-1.9,3.2-2.7c1.4-0.8,2.9-1.6,4.8-2.7c1-0.7,1.5-1.2,2-1.6c0.9-0.5,1.9-1,3.3-1.8
		c1-0.7,1.5-1.1,2-1.5c1.9,1.1,3.9,2.2,6.2,3.7c1.6,1.4,2.7,2.6,4,3.6c12.3,9.1,24.6,18.3,37,27.4c26,19.2,52,38.3,77.9,57.5
		c2.1,1.6,4.9,2.7,5.8,5.7c-2.1,3-5.5,4.4-8.3,6.4c-3.8,2.7-7.6,5.5-11.7,8.3c-1.4,0.8-2.4,1.5-3.8,2.2c-1.1,0.7-1.9,1.4-2.7,2
		c-1.4,0.6-2.9,1.3-4.7,1.8C444.1,595.6,443.5,595.4,442.9,595.2 M376.2,567.3c6.1-3.7,12-7.6,17.8-12.1c-0.9-0.9-1.4-1.5-2-1.9
		c-7.4-6.1-14.8-12.2-22.3-18.2c-1.8-1.4-3.7-2.7-5.8-4.7c-4.1-4.1-8.3-8.2-13.3-11.4c-0.1,1.2,0.1,2.2,0.4,3.1
		c4.9,14.3,10,28.6,14.8,43C368.6,572.9,369,573,376.2,567.3z"/>
	<path class="st7" d="M590.4,387.7c3.8-2.3,7.6-4.5,11.2-6.9c6.6-4.2,13-8.6,19.6-12.8c1.8-1.2,3.6-2.2,5.8,0.2
		c0.6,0.5,0.9,0.7,1.2,0.9c0.2,0.5,0.3,0.9,0.9,2c2.8,4.3,5.3,8.1,7.8,11.8c1.4,2.1,2.9,4,4.1,6.2c1.7,3,1.6,3.4-1.2,5.3
		c-1.8,1.3-3.7,2.4-5.5,3.6c-9.5,6.2-19,12.5-28.4,18.7c-1.6,1.1-2.1,2.3-1,4c4.4,6.5,8.8,13,13.1,19.5c0.9,1.4,2.3,2.1,3.8,1.2
		c2-1.3,3.8-3,5.7-4.5c4-2.4,8-4.8,12-7.3c9.4-6,18.7-12.2,28.7-18.5c0.9-0.6,1.2-1.1,1.5-1.5c0.4-0.2,0.8-0.4,1.6-0.5
		c0.9,0,1.5,0,2-0.1c0.6,0.7,1.1,1.4,1.9,2.7c1.2,1.7,2.2,2.8,3.3,4.2c1.2,2,2.2,3.6,3.2,5.5c0.5,0.8,1,1.3,1.8,2.2
		c0.5,0.8,0.9,1.3,1.2,2.1c1,1.4,2,2.5,3.2,3.9c1,2.2,3.5,3.8,0.8,6.2c-1.2,0.7-2,1.4-3,2.2c-0.5,0.4-0.8,0.6-1.4,0.8
		c-2,0.9-4,1.2-4.9,3.5c-1.5,0.9-2.7,1.7-4.2,2.3c-1.1,0.6-1.9,1.3-2.9,2.1c-0.5,0.4-0.8,0.6-1.4,0.8c-1.8,0.7-3.5,1-4,3.2
		c-1.8,1-3.3,1.9-5,2.7c-0.8,0.4-1.4,1-2.3,1.7c-0.8,0.5-1.3,0.9-2.1,1.2c-1.8,0.7-3.5,1-4,3.2c-1.2,0.8-2.2,1.4-3.5,1.9
		c-1.4,0.7-2.4,1.5-3.8,2.5c-0.8,0.5-1.3,0.9-2.1,1.3c-1.8,0.6-3.5,1-4.1,3.2c-1.2,0.8-2.2,1.4-3.4,1.9c-0.8,0.4-1.4,1-2.3,1.7
		c-1.3,0.8-2.3,1.5-3.6,2.1c-2,0.8-4.2,1.1-4.7,3.6c-0.7,0.5-1.2,0.8-1.9,1c-0.8,0.4-1.4,1-2.4,1.7c-1.8,1.1-3.3,2.1-5.1,3
		c-2.3,1.6-4.3,3.2-6.3,4.8c-1.2,0.5-2.4,1-4,1.7c-2.6-3.7-5.2-7.2-7.7-10.7c-8.2-11.8-16.4-23.6-24.5-35.4
		c-4.2-6.1-8.2-12.3-12.4-18.4c-7.7-11.2-15.6-22.4-23.3-33.6c-6-8.7-12-17.5-18-26.2c-1.2-1.7-0.7-3,0.9-4.1c2.4-1.7,4.8-3.4,7.3-5
		c14.5-9.6,29-19.1,43.6-28.7c8.9-5.8,17.7-11.7,26.6-17.6c0.5-0.3,1.1-0.5,1.9-0.9c1.1,1.3,2.2,2.6,3.7,4.3
		c0.5,0.9,0.6,1.3,0.9,1.6c3.9,5.6,7.8,11.2,11.7,16.8c2.2,3.2,2,3.8-1.1,5.9c-14.3,9.4-28.5,18.8-42.8,28.2c-1.1,0.7-2,1.6-2.8,2.3
		c0.2,0.8,0.2,1.3,0.4,1.7c4.2,6.4,8.4,12.8,12.7,19.2c1.2,1.7,2.8,2,4.6,0.8C588.5,389.5,589.4,388.6,590.4,387.7z"/>
	<path class="st6" d="M258.7,612.5c0.5,0,1,0,2-0.1c1.5-0.3,2.5-0.6,3.4-0.9c0.5,0,1,0,2.1-0.1c2.5-0.3,4.4-0.6,6.4-0.9
		c1.1,0,2.3,0,3.8,0.1c1-0.1,1.5-0.2,2.1-0.3c3.5,0.5,6.9,0.9,10.8,1.5c1,0.1,1.6,0.2,2.2,0.2c3,1.4,6,2.7,9.4,4.4
		c14.6,9.9,21.5,23.1,21.1,40c-0.3,12.7-6.1,23-14.6,32.1c-2.6,2.7-5.3,5.3-8.3,8.1c-0.9,0.5-1.4,1-2.4,1.5c-7,3.5-13.6,7-20.5,10.5
		c-0.7,0.2-1.1,0.5-1.8,0.5c-1.2,0-2.1,0-2.9,0.3c-6.9,2.4-14.1,3.2-21.4,3.6c-2.3,0.1-4.6,0.4-7,0.6c-1.3-0.2-2.5-0.4-4.2-0.7
		c-2.9-0.3-3.5-2.3-4.3-4c0.1-0.5,0.1-0.9,0.3-1.9c0-1.7-0.1-2.8-0.3-4c0.1-0.4,0.2-0.8,0.3-1.7c-0.1-1.1-0.2-1.6-0.3-2.2
		c0.1-1.5,0.2-3,0.4-4.9c0-1.6-0.1-2.8-0.2-4c0.2-2.4,0.3-4.8,0.5-7.2c0.1-1.5,0.4-3.1,0.9-4.9c0.7-0.5,1-0.7,1.3-0.9
		c3.8,0,7.6,0,11.8,0.1c1.7-0.2,2.8-0.3,4-0.5c0.7,0,1.4,0.1,2.6,0.1c1-0.2,1.6-0.5,2.1-0.7c0.8-0.1,1.6-0.3,2.9-0.5
		c1.8-0.5,3-0.9,4.2-1.3c4.4-0.7,8.1-3,12.2-5.7c2-2.1,3.4-4,4.9-5.8c0.7-1.4,1.3-2.8,2.1-4.7c-0.1-1.6-0.3-2.8-0.5-3.9
		c-0.3-0.9-0.6-1.9-1.3-3.4c-1.3-2.6-3.2-3.4-5.3-3.6c-2.6-0.3-5.3-0.6-7.9-0.2c-6.6,0.9-13.1,2.2-19.7,3.2
		c-7.6,1.1-15.2,2.3-22.8,3.1c-3.9,0.4-7.9,0.1-11.8,0.2c-1.4-0.4-2.7-0.7-4.5-1.2c-1.8-0.5-3.2-0.8-4.6-1.1c-3.6-2-7.1-4-11-6.4
		c-1.2-0.9-2-1.5-2.9-2c-0.3-0.4-0.5-0.8-1.2-1.7c-1.8-2-3.2-3.5-4.6-5c-1.4-2.8-2.8-5.6-4.3-8.9c-0.7-1.6-1.3-2.7-1.8-3.8
		c-0.2-1.2-0.4-2.4-0.7-4.1c-0.3-1.7-0.5-2.8-0.8-4c0-0.7,0-1.5,0-2.7c0-1.7-0.1-2.9-0.1-4c0.1-0.2,0.2-0.4,0.3-1c0-1-0.1-1.5-0.2-2
		c1.8-6.2,3.3-12.6,6.9-18.2c1.4-2.2,2.9-4.4,4.7-6.9c1-1.4,1.6-2.4,2.2-3.4c0.8-0.6,1.6-1.2,2.9-2.1c1.3-1.3,2.1-2.3,2.9-3.3
		c0.4-0.2,0.9-0.5,1.8-1c0.8-0.8,1.2-1.4,1.6-1.9c0.5-0.2,0.9-0.4,1.9-1c1.4-1,2.4-1.8,3.3-2.5c5.2-2.6,10.4-5.2,16.2-7.9
		c1.4-0.6,2.2-1.1,3-1.6c0.5-0.1,1-0.1,2.1-0.2c1.1-0.4,1.7-0.7,2.3-1c0.5,0,1,0,2.1-0.2c2.1-0.6,3.6-1,5.1-1.4
		c6.3-0.1,12.7-1.5,19.4,0c0.6,1,1,1.6,1.1,2.3c0.8,7.1,1.6,14.3,2.4,21.4c0.3,3.1,0.6,6.2,1,9.8c-1.9,0.2-3.3,0.4-4.7,0.5
		c-3.4,0.3-6.8,0.4-10.1,0.7c-8.3,0.7-15.9,3.5-22.6,8.3c-3,2.1-6.3,4.5-6.5,9c-0.3,0.7-0.4,1.4-0.7,2.2c0,1.5,0.1,2.8,0.3,4.4
		c0.5,1.1,1,1.9,1.6,3c2.1,3,5,4.3,8.4,3.9c5.8-0.7,11.6-1.7,17.4-2.5c0.4-0.1,0.7-0.5,1-0.8c0.5,0,1,0,2.1-0.1
		c1.8-0.4,3-0.8,4.3-1.1c0.5,0,1,0,2.1-0.1C256.2,613.2,257.4,612.8,258.7,612.5z"/>
	<path class="st7" d="M443.4,259.2c-2.3-3.6-4.7-7.3-7.3-11.3c-0.6-0.6-0.9-0.8-1.2-1c-0.5-0.9-0.9-1.9-1.7-3.4
		c-4.1-7.2-4.3-7.2-10.4-3c-8.5,5.7-17.1,11.3-25.6,17c-1.2,0.8-2,2-3,2.9c-1.6,0.7-3.2,1.4-5,2.1c-0.7-0.7-1.4-1.2-1.8-1.9
		c-5-7.1-10-14.3-14.9-21.4c-1.7-2.4-1.5-3.2,1.1-4.9c9.9-6.5,19.8-12.8,29.6-19.4c16-10.6,31.9-21.3,47.8-31.9
		c9.1-6,18.2-12,27.3-18c3.6-2.4,4.1-2.2,6.6,1.5c0.3,0.5,0.7,0.9,1.4,2c0.7,1.2,1,1.9,1.4,2.5c3.5,5.1,7.1,10.2,10.7,15.3
		c1.8,2.5,1.7,3.2-0.8,4.9c-0.5,0.3-1,0.6-1.5,0.9c-10.6,7-21.1,13.9-31.7,21c-3.1,2.1-3.2,3.1-1.2,6c4.1,5.8,8.1,11.6,12.2,17.5
		c7.6,11.1,15.1,22.3,22.8,33.4c9.9,14.4,20,28.8,30,43.2c1.7,2.5,1.7,2.8-0.8,4.5c-3.9,2.7-7.8,5.2-11.7,7.9
		c-4,2.7-7.9,5.6-11.8,8.4c-0.7,0.3-1.4,0.7-2.5,1.3c-1.2,0.8-1.9,1.2-2.6,1.7c-1-1.2-2.2-2.3-3.1-3.6c-13.5-19.6-27-39.1-40.5-58.7
		c-0.3-0.5-0.8-0.9-1.4-1.7c-0.6-0.6-0.9-0.8-1.2-1c-2.5-3.9-5-7.8-7.8-12C444,259.6,443.7,259.4,443.4,259.2z"/>
	<path class="st7" d="M556.1,484.2c0.8-0.4,1.5-0.8,2.7-1.5c1.1-0.9,1.8-1.5,2.4-2.1c4.3-1.4,4.3-1.4,8.4,4c2.1,3.3,3.8,5.9,5.6,8.6
		c2.1,3.1,4.3,6.2,6.3,9.4c1.6,2.6,1.4,3.3-1.1,4.9c-13.1,8.7-26.3,17.4-39.4,26.1c-11.6,7.6-23.2,15.1-34.7,22.8c-1.2,0.8-2,2-3,3
		c-5.8,1.7-5.7,1.7-9.4-3.8c-5.1-7.6-10.4-15-15.6-22.6c-8.7-12.5-17.3-25.1-25.9-37.7c-9-13.2-18.1-26.3-27.1-39.5
		c-4-5.9-8.2-11.6-12.2-17.5c-2.3-3.4-2.4-3.9,1.2-6.3c8.4-5.7,17-11.3,25.5-16.8c2.8-1.8,3.4-1.5,5.3,1.3c0.5,0.7,0.9,1.5,1.8,2.8
		c1.6,2.4,2.9,4.2,4.1,5.9c10.2,14.8,20.4,29.6,30.6,44.4c9.5,13.7,18.9,27.5,28.4,41.2c0.6,0.9,1.5,1.6,2.3,2.5
		c2.5-1,4.7-1.7,5.7-4.2c0.7-0.3,1.3-0.6,2.3-1.1c0.6-0.5,0.9-0.8,1.2-1.1c2.3-1.2,4.5-2.5,7.2-4c0.6-0.6,0.8-0.9,1-1.2
		c1.2-0.7,2.4-1.4,4.1-2.4c0.6-0.6,0.9-0.9,1.1-1.2c2-1.1,4-2.2,6.4-3.6c0.6-0.6,0.8-0.9,1.1-1.2c4-2.4,8-4.9,12.4-7.6
		C555.2,485.2,555.6,484.7,556.1,484.2z"/>
	<path class="st8" d="M325.7,430.1c3.8-0.1,7.7,0,11.7,0c9.9,0,19.5-1.5,28.5-5.4c6.9-3,13.8-6.3,20-10.4
		c14.9-10.1,25.5-23.6,31.4-40.5c4.2-12,5.2-24.3,3-36.8c-1.9-11.2-6.1-21.5-12.4-31.2c-8-12.4-18.8-21.5-31.8-28.9
		c3.6,0.9,7.5,1.7,11,3.3c6.7,3.2,12.6,7.7,17.9,12.9c3.6,3.5,7.2,7.2,10.3,11.1c2.9,3.8,5.6,7.8,7.5,12.1
		c4.1,9.3,7.6,18.7,8.3,29.1c0.9,12.6-0.8,24.6-5.6,36.3c-4.1,9.9-10.1,18.6-17.8,26.2c-5.2,5.1-11.2,9.1-17.3,13.1
		c-5.1,3.3-10.9,5-16.2,7.8c-2.9,1.6-6.5,1.8-9.8,2.6c-6.3,1.5-12.8,2-19.2,2c-4.5,0-9-0.3-13.4-1.7
		C329.8,431.3,327.8,430.9,325.7,430.1z"/>
	<path class="st9" d="M503.9,334.5c3.8-3.1,7.7-5.9,11.7-8.7c3.9-2.7,7.9-5.2,11.7-7.9c2.5-1.7,2.5-2.1,0.8-4.5
		c-10-14.4-20-28.8-30-43.2c-7.6-11.1-15.2-22.3-22.8-33.4c-4-5.9-8.1-11.7-12.2-17.5c-2-2.9-1.9-3.9,1.2-6c10.5-7,21.1-14,31.7-21
		c0.5-0.3,1-0.6,1.5-0.9c2.5-1.8,2.6-2.4,0.8-4.9c-3.6-5.1-7.1-10.2-10.7-15.3c-0.4-0.6-0.7-1.3-1.1-2.3c1.7-1.2,3.4-2.1,5.4-3.2
		c1.8,2.4,3.4,4.5,5,6.8c3.7,5.2,7.3,10.4,10.9,15.6c0.5,0.7,1.1,1.4,1.5,2.1c1.1,1.8,0.8,3.2-1.1,4.4c-7.5,4.8-15.1,9.6-22.5,14.5
		c-3.8,2.5-7.6,5-11.2,7.7c-2.8,2-3,3-1.1,5.8c3.2,4.6,6.6,9.1,9.9,13.7c2.4,3.4,4.6,7,6.9,10.5c4.8,7,9.5,14.1,14.3,21.1
		c6.5,9.3,13.2,18.6,19.7,27.9c4,5.8,7.7,11.8,11.6,17.7c0.8,1.2,1.9,2.2,2.7,3.4c1.3,1.9,1.1,3-0.9,4.4c-6,4.1-12.1,8.2-18.2,12.3
		c-2.7,1.8-5.4,3.6-8.2,5.1c-3.7,2-4.1,1.8-6.2-1.8C504.7,336.1,504.4,335.4,503.9,334.5z"/>
	<path class="st10" d="M264.1,492.8c0.4-0.8,1-1.6,1.8-2.2c6.6-4.4,13.3-8.8,19.9-13.1c6.4-4.1,6.4-4.1,2.4-10.3
		c-3.1-4.7-6.4-9.3-9.6-14c-7.8-11.2-15.6-22.4-23.3-33.6c-4.8-6.9-9.4-13.9-14.2-20.8c-7.7-11.2-15.5-22.4-23.2-33.6
		c-3.1-4.5-6.1-9.2-9.1-14.1c0.3-0.4,0.6-0.5,0.9-0.6c5.6-1.3,5.7-1.4,9.1,3.5c3.3,4.7,6.4,9.6,9.7,14.3c3.8,5.4,7.7,10.8,11.5,16.3
		c3.6,5.2,7.1,10.6,10.6,15.8c3.7,5.5,7.6,10.9,11.4,16.3c2.1,3.1,4.2,6.2,6.3,9.3c3.5,5.1,7,10.2,10.5,15.3c4,5.8,8,11.7,12,17.5
		c1.8,2.6,3.7,5.1,5.5,7.8c1.6,2.4,3.1,4.9,4.6,7.4c0.9,1.4,0.7,2.8-0.8,3.8c-2.8,1.9-5.5,3.9-8.3,5.8c-5.7,3.8-11.5,7.5-17.3,11.3
		c-0.7,0.5-1.6,0.8-2.4,1.2c-1.7,0.9-3.2,0.8-4.1-1C267,493.8,266,492.8,264.1,492.8z"/>
	<path class="st11" d="M185.7,544.5c4.1-3.4,8.5-6.5,12.9-9.6c3.5-2.4,7.2-4.7,10.6-7.1c2.8-2,2.9-2.4,0.9-5.3
		c-5-7.4-10.2-14.8-15.3-22.2c-4.8-7-9.6-14.1-14.4-21.2c-0.6-0.9-1.1-2-1.8-3.3c4.5-3.1,8.6-6,12.9-8.8
		c7.6-5.1,15.2-10.1,22.8-15.2c2.8-1.9,5.7-3.7,8.6-5.4c2.4-1.4,3.1-1.3,4.9,0.8c1,1.2,1.8,2.6,2.7,4.3c-6.7,4.6-13.3,8.9-19.9,13.2
		c-2.8,1.8-5.6,3.7-8.5,5.5c-4.3,2.8-8.5,5.6-12.6,8.4c0,0.9-0.1,1.4,0.1,1.7c3.6,5.2,7.4,10.3,10.9,15.5
		c3.9,5.7,7.6,11.6,11.4,17.3c1.8,2.6,3.7,5.2,5.5,7.7c0.3,0.5,0.9,0.8,1.1,1.3c3.9,7.1,4.7,6.2-2.4,11.2c-5.6,4-11.3,7.8-17.1,11.6
		c-2,1.3-4.1,2.3-6.2,3.3c-3,1.5-3.3,1.3-5.3-1.5C187.1,546,186.5,545.4,185.7,544.5z"/>
	<path class="st12" d="M503.3,559.7c0.8-1.2,1.6-2.5,2.8-3.3c11.5-7.6,23.2-15.2,34.7-22.8c13.2-8.7,26.3-17.4,39.4-26.1
		c2.5-1.7,2.8-2.3,1.1-4.9c-2-3.2-4.2-6.3-6.3-9.4c-1.8-2.6-3.5-5.3-5.3-8.4c0.7-0.8,1.5-1.3,2.3-1.6c2.7-1.2,4.1-0.8,5.6,1.5
		c4.4,6.4,8.8,12.8,13.2,19.2c0.5,0.7,0.9,1.5,1.3,2.3c1.1,2.5,0.9,3-1.5,4.6c-8.3,5.5-16.5,11-24.9,16.5
		c-5.9,3.8-11.9,7.5-17.8,11.3c-1.4,0.9-2.6,1.9-3.9,2.8c-4.6,3.1-9.3,6.1-13.9,9.2c-5.6,3.7-11.1,7.5-16.7,11.3
		c-0.7,0.5-1.5,1-2.3,1.4c-3.5,1.9-3.8,1.7-6-1.4C504.8,561.1,504.1,560.5,503.3,559.7z"/>
	<path class="st12" d="M644.2,465.5c0.5-0.4,1-0.8,2.1-1.2c1.6-0.9,2.7-1.7,3.8-2.5c1-0.6,1.9-1.2,3.5-2c2.1-0.8,3.9-1.1,4-3.2
		c0.5-0.4,1-0.7,2-1.1c1.1-0.6,1.7-1.1,2.3-1.7c1.5-0.9,2.9-1.8,5.1-2.8c2.1-0.9,4-1,4-3.2c0.3-0.2,0.5-0.5,1.3-0.7
		c1.3-0.7,2.1-1.4,2.9-2.2c1.2-0.8,2.4-1.5,4.3-2.4c2.3-1,4.6-1,4.8-3.5c0.3-0.2,0.5-0.5,1.3-0.7c1.4-0.8,2.3-1.6,3.1-2.3
		c2.4-2.4-0.1-4.1-1.1-6.6c-0.9-2-1-3.9-3.2-3.9c-0.4-0.5-0.7-1-1.1-2c-0.6-1.1-1.2-1.6-1.8-2.2c-1-1.7-2.1-3.3-3.2-5.7
		c-0.4-1.4-0.6-2.1-0.8-2.7c3.9-2.2,4.8-2.2,7.3,1.2c2.1,2.9,4,6,6,9c1.4,2,2.9,3.9,4.3,6c1.8,2.6,3.5,5.2,5.3,7.9
		c-3.1,4-7.2,6-10.9,8.5c-5.4,3.7-11.1,7.2-16.6,10.8c-3.5,2.3-7,4.7-10.6,7.1c-5.8,3.9-11.6,7.9-17.5,11.7
		c-5.8,3.8-11.6,7.3-17.4,11.1c-2.1,1.4-4.1,2.9-6,4.4c-4.6,3.6-6.4,3.3-9.2-2.2c1.5-2,2.9-3.4,4.3-4.8c1.5-0.9,2.9-1.9,5-2.9
		c1.2-0.6,1.8-1.1,2.4-1.7c0.5-0.3,1-0.7,2.1-1.1c2.2-1,4.4-1.2,4.7-3.6c1-0.7,2-1.3,3.5-2c1.2-0.6,1.7-1.1,2.3-1.7
		c0.9-0.6,1.9-1.2,3.5-2C642.2,467.8,644.1,467.6,644.2,465.5z"/>
	<path class="st8" d="M590.1,387.5c-0.7,1.1-1.6,2-2.6,2.7c-1.8,1.3-3.4,0.9-4.6-0.8c-4.3-6.4-8.5-12.8-12.7-19.2
		c-0.2-0.3-0.2-0.8-0.4-1.7c0.9-0.7,1.8-1.6,2.8-2.3c14.2-9.4,28.5-18.8,42.8-28.2c3.1-2.1,3.3-2.7,1.1-5.9
		c-3.9-5.6-7.8-11.2-11.7-16.8c-0.2-0.4-0.4-0.8-0.5-1.5c2-0.5,4-0.7,6.6-1c2.1,2.8,4.6,5.9,7,9.2c2.4,3.3,4.7,6.6,7.1,9.9
		c0.4,0.6,0.8,1.2,1.2,1.8c2.9,4.9,2.5,6-2.5,8.8c-2.6,1.4-4.9,3.2-7.4,4.8c-7,4.6-14,9.1-21,13.7c-4.4,2.9-8.8,5.8-13.2,8.7
		c-1.5,1-1.8,2.2-1.1,3.7c0.2,0.4,0.4,0.8,0.6,1.2C584.3,378.9,587,383.1,590.1,387.5z"/>
	<path class="st8" d="M297.3,697.9c0.5-0.5,1.1-0.9,2.3-1.4c2.1-1.2,3.7-2.3,5.1-3.5c9.5-8.2,16.3-17.9,18.5-30.3
		c0.9-5.1,1.2-10.3,0.3-15.4c-1.5-8.8-5.1-16.7-11.1-23.4c-0.6-0.6-0.8-1.6-1.2-2.5c1.5,0.1,2.7,0.2,3.8,0.3c0.5,0.8,1,1.6,1.8,2.9
		c1.3,0.8,2.4,1.1,3.4,1.3c0.4,0.6,0.7,1.1,1.1,2.3c1.3,2.6,2.8,4.6,3.8,6.7c1.9,3.7,3.5,7.5,5.2,11.3c0.3,0.6,0.5,1.2,0.6,2.3
		c0,1.4,0.1,2.3,0.2,3.2c0.4,1.9,0.7,3.8,0.8,6.1c-0.3,2.4-0.3,4.3-0.4,6.3c-1.1,4.2-1.1,8.8-4.5,12.9c-1.3,2.5-3.2,4.2-3.3,6.7
		c-1.1,1.3-2.2,2.5-3.8,4.1c-0.7,0.9-0.8,1.6-0.9,2.2c-0.6,0.4-1.1,0.7-2.2,1.3c-2.1,1.2-3.4,2.1-2.9,4.1c-0.4,0.2-0.7,0.4-1.6,0.7
		c-4.5,2.3-4.8,2.6-5.4,4.9c-0.8,0.5-1.7,1-3.2,1.5c-4.2,1.7-7.7,3.4-11.2,5.1c-0.8,0.4-1.4,1.3-2.1,2c-1.4,0.7-2.8,1.4-4.7,2
		c-3.2-0.6-5.5,0.2-7.6,1.6c-0.6,0.3-1.2,0.5-2.3,0.7c-1.5-0.4-2.5-0.9-2.8,0.7c-0.6,0.3-1.2,0.6-2.3,0.8c-1.1-0.1-1.8-0.2-2.4-0.2
		c-2.6,0.3-5.2,0.7-8.3,0.9c-1.1-0.2-1.8-0.2-2.5-0.2c-0.5,0.1-1.1,0.1-1.9-0.2c0-0.8,0.2-1.6,0.5-1.7c4.8-0.9,9.5-1.5,14.3-2.5
		c1.6-0.3,3.1-1.5,4.6-2.3c0.4-0.2,0.8-0.5,1.7-0.5c5-1.6,9.7-2.9,13.8-5.2C292.9,702,296,700.8,297.3,697.9z"/>
	<path class="st13" d="M517.3,509.2c-0.7,2.7-2.9,3.4-5.4,4.4c-0.8-0.9-1.7-1.6-2.3-2.5c-9.5-13.7-18.9-27.5-28.4-41.2
		c-10.2-14.8-20.4-29.6-30.6-44.4c-1.2-1.8-2.5-3.6-3.8-5.7c0.8-0.9,1.7-1.4,2.6-1.9c2.8-1.3,3.2-1.1,5,1.5
		c3.6,5.1,7.3,10,10.8,15.1c3.9,5.7,7.6,11.5,11.4,17.3c1,1.6,2.3,3,3.3,4.5c5.1,7.5,10,15.1,15.2,22.6c4.7,6.9,9.7,13.6,14.6,20.4
		c0.8,1.1,1.3,2.3,2,3.3C513.6,504.8,515.4,506.9,517.3,509.2z"/>
	<path class="st14" d="M456.7,589.7c3.8-2.7,7.5-5.5,11.3-8.2c2.8-2,6.2-3.4,8.3-6.4c-0.9-3-3.7-4.2-5.8-5.7
		c-25.9-19.2-51.9-38.4-77.9-57.5c-12.3-9.1-24.7-18.2-37-27.4c-1.3-1-2.4-2.1-3.6-3.5c3.2-1.3,5.6-0.5,8.4,1.6
		c9.8,7.6,19.9,14.8,29.8,22.1c10.2,7.5,20.3,15.1,30.5,22.6c11.4,8.5,22.9,16.9,34.3,25.4c2.1,1.5,3.9,3.4,6.2,5.6
		c1,0.7,1.7,0.8,2.4,1c0.2,0.3,0.4,0.6,0.8,1.4c1,0.6,1.7,0.8,2.4,0.9c1.4,1.3,2.7,2.5,4.4,4.3c1,0.7,1.7,0.8,2.4,1
		c0.2,0.3,0.4,0.6,0.8,1.4c0.9,1.8,1.5,3,3.3,2.4c0.3,0.5,0.5,0.9,1.1,2c0.6,2.3,0.2,3.7-1.3,4.8c-5.8,3.9-11.5,7.9-17.4,11.7
		C459.3,589.8,457.9,589.6,456.7,589.7z"/>
	<path class="st15" d="M384.1,598.5c0.3-0.3,0.6-0.6,1.6-0.9c8.6-2.9,14.3-9.5,21.9-13c0.3-0.1,0.4-0.5,0.6-0.6
		c3.7-2.2,6.7-5.7,11.3-6.6c1.8,1.4,3.9,2.5,2.4,5.2c-1.4,0.7-2.7,1.4-4.7,2.5c-1.8,1.1-3.9,1.1-3.2,3.4c-0.4,0.2-0.7,0.4-1.6,0.7
		c-1.1,0.5-1.7,1-2.3,1.5c-2.1,1.1-4.3,2.2-7.1,3.7c-2.6,1.9-4.4,3.5-6.3,5.1c-1.9,1-3.7,2-6.3,3.3c-3,2.3-3.1,2.8-1.8,4.6
		c0.6,1.1,1.1,2.2,1.6,3.8c-0.5,2.4-0.9,4.3,1.3,5.4c0.4,0.9,0.9,1.7,1.2,3.1c0.3,2.5,0.7,4.5,1.2,6.5c0.5,1.1,1.1,2.2,1.7,3.8
		c0.5,1.1,0.9,1.7,1.4,2.3c0.2,0.4,0.4,0.7,0.5,1.6c-0.1,1.3,0,2.2,0.1,3c-0.5,0.6-1,1.2-2,1.9c-1.1,0.5-1.7,1-2.3,1.5
		c-1.1,0.6-2.2,1.2-4,2.1c-2.8,2.1-4.9,3.8-7,5.5c-2.1,1.1-4.3,2.2-7.1,3.7c-3.8,1.3-5.4,5.2-9.2,4.8c-1.4-4.2-1.4-4.4,1.5-6.7
		c0.9-0.8,2.6-1,2.2-2.8c0.3-0.3,0.6-0.6,1.6-0.8c1.2-0.2,1.8-0.3,2.3-0.6c4.8-3.1,9.6-6.2,14.3-9.4c1.9-1.3,2-3.3,1.2-5.5
		c-1.8-5.1-3.4-10.4-5.3-15.5c-0.9-2.5-0.5-5.6-3.4-7.2c-0.2-0.4-0.4-0.7-0.4-1.6c0.5-3,1.3-5.1,3.8-6.3
		C384,599.9,384,599,384.1,598.5z"/>
	<path class="st8" d="M217.4,606.7c0.1-0.6,0.2-1.2,0.8-2.1c1.3-1.5,1.9-2.8,2.8-3.9c6.1-7.3,14.8-9.8,23.6-11.5
		c5-1,10.3-0.7,15.4-1c3.2-0.2,3.6-0.6,3.2-3.7c-0.8-7.9-1.7-15.7-2.6-23.6c-0.3-2.2-0.6-4.4,2.1-5.5c2.1-0.4,4.4-1.1,5.6,1.8
		c-0.1,1.1-0.2,1.7-0.2,2.4c0.3,1,0.7,2,0.7,3.5c-0.2,1.4-0.2,2.3-0.1,3.1c0.2,0.6,0.5,1.2,0.6,2.2c-0.8,1.2-0.8,1.8,0.4,2
		c0.2,0.4,0.3,0.7,0.4,1.6c-1,3-1,3.4,0.4,8.9c0.3,0.6,0.5,1.2,0.7,2.2c-0.1,1.1-0.2,1.8-0.2,2.4c0.2,0.8,0.4,1.5,0.1,2.7
		c-1,0.7-1.6,1-2.2,1.3c-0.4,0.1-0.8,0.3-1.6,0.3c-2.8-1.8-5-0.6-7.1,0.3c-1.2,0.1-2.5,0.2-3.7,0.3c-0.8,0.1-1.5,0.4-2.8,0.5
		c-2.8,0.4-5.1,1-7.5,1.5c-0.6,0.3-1.2,0.6-2.4,0.9c-3.3,0.9-6.2,1.6-7.8,4.3c-0.8,0.4-1.7,0.9-3.1,1.6c-1.8,1.5-3,2.8-4.3,4
		c-1.1,1-1.6,2-0.9,3.4c-0.2,0.7-0.3,1.4-0.9,2.4c-0.7,2.7-1,4.9-1.3,7.6c-2.3-1-4.3-1.8-6.4-2.7c-0.5-0.8-1.1-1.5-1.4-2.9
		C217.7,609.3,217.6,608,217.4,606.7z"/>
	<path class="st15" d="M645.6,400.6c-1.3,0.7-2.7,1.5-4.7,2.3c-3.6,1.8-6.5,3.6-9.3,5.4c-0.3,0.2-0.1,1-0.1,1.6
		c-1.1,0.6-2.2,1.2-3.9,1.8c-3.6,1.8-6.5,3.6-9.3,5.4c-0.3,0.2-0.1,1-0.1,1.6c-1.5,1.2-4.2,1.4-3.7,4.8c0.1,2.1,0.5,3.2,2.5,2.7
		c1.2,2.1,2.3,4.1,3.6,6.8c0.9,2.1,1.6,3.6,2.6,5.3c-0.5,0.6-1.2,1.3-2.1,2.3c-5.7-7.1-10.4-14.4-15.1-22.4c3.5-1.8,6.6-3.1,9.4-4.9
		c2.8-1.8,5.3-4.1,8.1-6c2.8-1.9,5.7-3.6,8.5-5.4c2.7-1.7,5.4-3.4,8.2-5.1c0.9-0.5,1.9-0.9,2.7-1.5c1.4-1.1,2-2.5,1-4.2
		c-2.8-4.9-4.8-10.2-9.1-14.2c-1.3-1.2-1.9-3-3-4.7c1.3-0.9,2.1-1.4,2.9-2c0,0,0,0,0.2,0.4c1.8,2.5,3.3,4.7,5,6.8
		c0.2,0.3,1.1,0.1,1.6,0.2c0.9,1.6,1.8,3.1,2.7,5.3c1.1,4.1,3.4,6.6,6.1,8.8c0.4,0.8,0.9,1.6,1.2,2.9c-0.3,0.9-0.6,1.4-0.8,1.9
		c-0.5,0.3-1.1,0.6-2.2,1.1C646.4,398.4,645,398.8,645.6,400.6z"/>
	<path class="st16" d="M165.3,444.8c0,0.6-0.1,1-0.4,1.3c-4.3,3.5-5.1,3.3-8.2-1.2c-8.7-12.7-17.4-25.3-26.1-37.9
		c-0.5-0.7-0.9-1.5-1.3-2.6c0.5-0.7,1-0.9,1.5-1.2c4-2,3.9-1.9,6.5,1.8c4.7,6.7,9.6,13.3,14.4,20c1.1,1.5,1.8,3.3,2.8,4.9
		c1,1.6,2.1,3.1,3.2,4.6C160.2,437.8,162.7,441.2,165.3,444.8z"/>
	<path class="st17" d="M394.4,260.7c0.7-1.2,1.6-2.4,2.8-3.2c8.5-5.7,17.1-11.3,25.6-17c6.1-4.1,6.3-4.2,10,2.8
		c-3.9,3.1-7.9,5.8-11.9,8.5c-2.3,1.5-4.6,3-6.9,4.6c-3.6,2.4-7.3,4.8-10.9,7.3c-3.4,2.5-4.5,2.3-6.9-1.2
		C395.7,261.9,395.2,261.4,394.4,260.7z"/>
	<path class="st4" d="M215.4,653.7c3.8-0.3,7.8,0,11.7-0.4c7.6-0.8,15.2-2,22.8-3.1c6.6-1,13.1-2.3,19.7-3.2
		c2.6-0.3,5.3-0.1,7.9,0.2c2.1,0.2,4,1,5,3.4c-5.8-0.3-11.5,1.3-17,2.3c-12.3,2.4-24.6,4.6-37.1,4
		C223.9,656.8,219.6,656.1,215.4,653.7z"/>
	<path class="st8" d="M634.3,369.9c-0.6,0.8-1.5,1.4-2.7,2.2c1,1.7,1.7,3.5,3,4.7c4.2,4,6.3,9.3,9.1,14.2c1,1.7,0.4,3.1-1,4.2
		c-0.8,0.6-1.8,1-2.7,1.5c-2.7,1.7-5.4,3.4-8.2,5.1c-2.8,1.8-5.8,3.5-8.5,5.4c-2.8,1.9-5.3,4.2-8.1,6c-2.8,1.8-5.9,3.1-9.4,4.9
		c4.8,8,9.4,15.3,15.1,22.4c0.9-1,1.6-1.7,2.1-2.3c-0.9-1.7-1.7-3.2-2.4-5c0.9,0.5,1.8,1.2,2.3,2.1c1,1.6,2.2,2.1,4.2,1.6
		c-1.6,1.5-3.4,3.2-5.4,4.5c-1.5,0.9-2.8,0.2-3.8-1.2c-4.4-6.5-8.8-13-13.1-19.5c-1.1-1.7-0.6-2.9,1-4c9.5-6.2,19-12.5,28.4-18.7
		c1.8-1.2,3.7-2.4,5.5-3.6c2.8-1.9,2.9-2.3,1.2-5.3c-1.2-2.1-2.7-4.1-4.1-6.2c-2.5-3.7-5-7.5-7.5-11.6
		C630.9,370.5,632.1,368.7,634.3,369.9z"/>
	<path class="st18" d="M456.3,589.8c1.6-0.3,3-0.1,4-0.7c5.9-3.8,11.6-7.8,17.4-11.7c1.5-1,1.9-2.5,1.4-4.5c2.7-1.3,3.4,1.4,5.5,3
		c1.5,2.8,0.1,3.9-1.8,4.9c-1.3,0.7-3.4,0.8-2.9,3.2c-1.1,0.6-2.2,1.2-4,1.9c-3.6,1.9-6.6,3.8-9.4,5.7c-0.2,0.1,0,0.8,0,1.2
		c-1.1,0.6-2.2,1.2-3.9,1.9c-2.6,0.6-4.6,1-5.4,3.1c-0.4,0.2-0.7,0.4-1.5,0.5c-1.1-0.2-1.8-0.3-2.4-0.5c-0.5-0.8-0.9-1.6-1.3-2.8
		c1.2-1.1,1.8-1.8,1.1-3.1C453.9,591.3,454.9,590.6,456.3,589.8z"/>
	<path class="st4" d="M314.7,621.4c-1,0.2-2.1,0.1-3.6,0c0.4,0.9,0.6,1.8,1.2,2.5c6,6.8,9.7,14.7,11.1,23.4
		c0.9,5.1,0.6,10.3-0.3,15.4c-2.2,12.4-9,22.1-18.5,30.3c-1.4,1.2-2.9,2.3-4.7,3.4c2.3-2.7,5.1-5.3,7.6-8.1
		c8.6-9.1,14.4-19.4,14.6-32.1c0.4-16.9-6.6-30.1-20.8-40c1.4-0.3,3.1-0.7,4.4-0.1C308.8,617.5,311.6,619.4,314.7,621.4 M308,618.9
		C308,618.9,308,619,308,618.9z"/>
	<path class="st4" d="M262.5,555.3c-2.4,1.4-2.2,3.5-1.9,5.7c0.9,7.9,1.8,15.7,2.6,23.6c0.3,3.1,0,3.5-3.2,3.7
		c-5.1,0.3-10.4,0-15.4,1c-8.8,1.7-17.5,4.2-23.6,11.5c-0.9,1.1-1.5,2.4-2.6,3.7c-0.3-4.2,3-6.6,6-8.7c6.7-4.8,14.3-7.5,22.6-8.3
		c3.4-0.3,6.8-0.5,10.1-0.7c1.4-0.1,2.8-0.3,4.7-0.5c-0.3-3.5-0.6-6.7-1-9.8c-0.8-7.1-1.6-14.3-2.4-21.4c-0.1-0.7-0.5-1.3-0.8-2.4
		C259.2,553.3,260.8,554.2,262.5,555.3z"/>
	<path class="st14" d="M422.2,582.7c1.2-2.8-0.9-3.9-2.7-5.3c-4.6,0.9-7.6,4.3-11.3,6.6c-0.2,0.1-0.4,0.5-0.6,0.6
		c-7.6,3.5-13.3,10.1-21.6,12.9c2.1-1.9,4.5-3.8,7-5.5c7.6-5,15.2-10,22.8-14.9c3.2-2.1,3.6-2,6.6,0.4c2.7,2.2,5.3,4.5,8,7
		c-0.7,0-1.8,0-2.2-0.6C426.6,582,424.7,582,422.2,582.7z"/>
	<path class="st4" d="M274.6,709c-1.2,0.9-2.7,2.1-4.3,2.4c-4.7,1-9.5,1.6-14.3,2.5c-0.3,0.1-0.5,0.8-0.7,1.6
		c-4.2,2.1-8,0.6-11.8-1.7c2.2-0.4,4.5-0.7,6.8-0.8c7.3-0.4,14.4-1.2,21.4-3.6C272.5,709,273.4,709,274.6,709z"/>
	<path class="st4" d="M219.1,614.3c2,0.6,4.1,1.4,6.4,2.4c0.3-2.6,0.6-4.9,1.1-7.4c0.4,0.5,0.6,1.2,0.6,1.9c0.4,5.2,1.4,6,6.5,5.2
		c3-0.5,6-1.2,9.1-1.7c0.9-0.1,1.7-0.1,2.8,0c-0.1,0.4-0.4,0.8-0.8,0.9c-5.8,0.9-11.6,1.8-17.4,2.5
		C224.1,618.6,221.2,617.3,219.1,614.3z"/>
	<path class="st14" d="M369.3,646.9c0.8,1.7-0.9,2-1.8,2.7c-2.9,2.4-2.9,2.5-1.5,6.7c3.8,0.4,5.4-3.5,8.9-4.6
		c0.4,0.3,0.5,0.9,0.3,1.1c-2.3,1.7-4.6,3.6-7.1,5c-2.4,1.3-3.2,0.9-4-1.9c-0.5-1.8-1-3-3.5-2.5C363.2,651.3,366,649.1,369.3,646.9z
		"/>
	<path class="st4" d="M330.5,646c-1.9-3.5-3.6-7.3-5.4-11c-1.1-2.1-2.5-4.1-3.7-6.4C326.8,632.9,330,638.7,330.5,646z"/>
	<path class="st12" d="M466.8,592.7c-0.4-0.3-0.6-1-0.4-1.1c2.9-1.9,5.8-3.8,9.1-5.5C473,588.3,470.1,590.4,466.8,592.7z"/>
	<path class="st12" d="M480.2,583.9c-0.9-2.2,1.2-2.3,2.5-3c1.8-1,3.3-2,2-4.7c2.7,0.5,3.4,1.8,1.7,3.5
		C484.8,581.2,482.6,582.4,480.2,583.9z"/>
	<path class="st8" d="M618.4,418.5c-0.3-0.4-0.5-1.2-0.2-1.4c2.8-1.8,5.8-3.6,9-5.2C624.6,414,621.6,416.2,618.4,418.5z"/>
	<path class="st8" d="M631.8,409.6c-0.3-0.4-0.5-1.2-0.2-1.4c2.8-1.8,5.8-3.6,9-5.2C638,405.2,635,407.4,631.8,409.6z"/>
	<path class="st8" d="M650.1,391.3c-2.8-1.9-5.1-4.4-6-8.2C646.2,385.6,648.2,388.3,650.1,391.3z"/>
	<path class="st8" d="M641.1,377.2c-0.4,0.3-1.2,0.5-1.5,0.2c-1.7-2.1-3.2-4.3-4.9-6.8c0.6-0.1,1.6-0.1,2,0.4
		C638.2,372.8,639.5,374.9,641.1,377.2z"/>
	<path class="st4" d="M236.3,597.8c1.3-2.8,4.1-3.4,7.2-4.2C241.4,595.1,239,596.5,236.3,597.8z"/>
	<path class="st14" d="M382.6,648c1.8-1.8,3.9-3.6,6.4-5.4c0.2,0.5,0.2,1.4-0.2,1.7C386.9,645.6,384.9,646.8,382.6,648z"/>
	<path class="st4" d="M270.6,580.8c-1.6-5.4-1.6-5.8-0.5-8.5C270.5,575,270.7,577.8,270.6,580.8z"/>
	<path class="st14" d="M397,599.5c1.6-1.7,3.5-3.3,5.7-5c0.3,0.4,0.4,1.2,0.1,1.4C401,597.2,399.1,598.4,397,599.5z"/>
	<path class="st4" d="M227.9,606.5c-1-1.2-0.5-2.2,0.6-3.2c1.3-1.2,2.4-2.4,4-3.8c-0.1,0.7-0.3,1.7-0.8,2.4
		C230.6,603.5,229.4,604.9,227.9,606.5z"/>
	<path class="st19" d="M616.3,483.5c-1,1.4-2.5,2.8-4.1,4.5c-0.7,0.4-1.2,0.5-1.9,0.5C611.9,486.8,613.9,485.1,616.3,483.5z"/>
	<path class="st4" d="M246.4,592.8c2.1-0.8,4.5-1.3,7-1.6C251.4,592.7,249.2,593.8,246.4,592.8z"/>
	<path class="st4" d="M234.7,709c1,1.6,1.5,3.5,4.2,4C234.8,713.6,234.5,713.3,234.7,709z"/>
	<path class="st4" d="M324.1,683.4c-0.2-2.3,1.7-4,2.9-6.2C328.5,680,326,681.4,324.1,683.4z"/>
	<path class="st12" d="M457.4,597.9c0.5-2.2,2.6-2.6,4.8-3.1C461.7,597.1,459.6,597.5,457.4,597.9z"/>
	<path class="st4" d="M282.3,663c-1.2,1.7-2.6,3.5-4.4,5.2C279.1,666.5,280.5,664.8,282.3,663z"/>
	<path class="st4" d="M260.3,590.5c2-1.1,4.2-2.3,6.7-0.4C264.9,590.5,262.7,590.6,260.3,590.5z"/>
	<path class="st4" d="M272.5,610.3c-1.8,0.4-3.7,0.7-5.9,0.8C268.3,610.7,270.3,610.4,272.5,610.3z"/>
	<path class="st14" d="M324.7,545.6c0.8,1.5,1.3,3.2,1.8,5.2C324.5,549.7,324.9,547.7,324.7,545.6z"/>
	<path class="st14" d="M347.3,627.8c0.8,1.5,1.4,3.2,1.8,5.2C347.2,632,347.5,629.9,347.3,627.8z"/>
	<path class="st14" d="M394.2,626c-0.6-1.8-1.1-3.8-1.2-6C394.5,621.6,395.1,623.6,394.2,626z"/>
	<path class="st14" d="M322.6,537.9c0.8,1.5,1.4,3.2,1.8,5.2C322.4,542,322.8,539.9,322.6,537.9z"/>
	<path class="st14" d="M351.9,644c0.6,1.3,1.1,2.7,1.5,4.5C351.2,647.7,352.1,645.8,351.9,644z"/>
	<path class="st14" d="M388.9,607.1c-1.6-1.6-1.4-2.1,1.2-4.2C390,604.2,389.5,605.5,388.9,607.1z"/>
	<path class="st4" d="M331.8,663.8c-0.2-1.7-0.2-3.7,0.1-5.8C332.4,659.8,333.8,661.7,331.8,663.8z"/>
	<path class="st14" d="M349.7,636.4c0.6,1.3,1.1,2.7,1.5,4.4C349.1,640,350,638.1,349.7,636.4z"/>
	<path class="st14" d="M338,593.5c0.6,1.3,1.2,2.7,1.5,4.4C338.8,596.7,338.3,595.2,338,593.5z"/>
	<path class="st14" d="M313.2,503.6c0.6,1.3,1.1,2.7,1.5,4.4C314,506.8,313.6,505.3,313.2,503.6z"/>
	<path class="st14" d="M335.9,585.8c0.6,1.3,1.1,2.7,1.4,4.4C336.7,589,336.2,587.5,335.9,585.8z"/>
	<path class="st14" d="M345.2,620.1c0.7,1.3,1.2,2.7,1.5,4.5C346.1,623.3,345.6,621.8,345.2,620.1z"/>
	<path class="st4" d="M237.8,552.7c-1.3,0.6-2.8,1-4.6,1.3C234.1,552,236,552.8,237.8,552.7z"/>
	<path class="st14" d="M333.4,577.3c0.6,1.3,1.2,2.7,1.5,4.4C334.3,580.5,333.8,579,333.4,577.3z"/>
	<path class="st14" d="M391.8,616.3c-2.3-0.9-2-2.7-1.3-4.8C391.1,612.9,391.5,614.4,391.8,616.3z"/>
	<path class="st14" d="M331.3,569.6c0.7,1.3,1.2,2.7,1.5,4.4C330.7,573.3,331.6,571.3,331.3,569.6z"/>
	<path class="st14" d="M327.1,554.1c0.6,1.3,1.1,2.7,1.5,4.4C326.5,557.8,327.4,555.9,327.1,554.1z"/>
	<path class="st14" d="M329.2,561.8c0.6,1.3,1.1,2.8,1.4,4.5C328.6,565.5,329.5,563.6,329.2,561.8z"/>
	<path class="st12" d="M477.8,570.4c-1.8,0.9-2.4-0.3-3.2-1.9C476.2,567.9,477.7,567.9,477.8,570.4z"/>
	<path class="st14" d="M414.3,588.4c-1-2.1,1.1-2.1,2.6-3.1C417.7,587.3,415.8,587.5,414.3,588.4z"/>
	<path class="st4" d="M206.9,565.1c-0.7,0.8-1.6,1.5-2.9,2.2C204.7,566.5,205.7,565.8,206.9,565.1z"/>
	<path class="st19" d="M677.3,412.8c0.4,0.9,0.7,1.6,0.9,2.6c-1-0.7-2-1.8-2.9-3.3C675.9,412,676.5,412.3,677.3,412.8z"/>
	<path class="st4" d="M206.3,651.4c1.2,0.1,2.6,0.4,4.1,0.9C209.2,652.2,207.8,651.9,206.3,651.4z"/>
	<path class="st14" d="M333.1,484.8c-0.6,0.9-1.5,1.6-2.8,2.4C330,485.3,331.6,485.3,333.1,484.8z"/>
	<path class="st4" d="M198.3,571.5c-0.6,1.1-1.4,2-2.5,3C196.4,573.5,197.3,572.4,198.3,571.5z"/>
	<path class="st4" d="M265.3,674.2c-1,0.5-2.3,0.9-3.7,1.1C262.6,674.8,263.8,674.5,265.3,674.2z"/>
	<path class="st4" d="M252.1,613.6c-1.1,0.5-2.3,0.8-3.8,1C249.4,614.1,250.6,613.8,252.1,613.6z"/>
	<path class="st4" d="M258.5,612.4c-1.1,0.5-2.3,0.8-3.8,1C255.7,612.9,257,612.5,258.5,612.4z"/>
	<path class="st4" d="M234.7,703c0.3,1,0.4,2.2,0.3,3.5C234.7,705.5,234.6,704.4,234.7,703z"/>
	<path class="st14" d="M319.7,493.6c-0.4,0.7-1.1,1.4-2,2C318,494.9,318.7,494.2,319.7,493.6z"/>
	<path class="st4" d="M253.5,676.5c-1,0.3-2.2,0.5-3.5,0.5C250.9,676.7,252.1,676.5,253.5,676.5z"/>
	<path class="st14" d="M452.6,592.1c1.1,1.2,0.4,1.9-0.9,2.7c-0.7,0-1.1-0.2-1.6-0.5C450.6,593.4,451.4,592.8,452.6,592.1z"/>
	<path class="st9" d="M498.7,337.3c0.5-0.6,1.3-1,2.3-1.4C500.5,336.4,499.7,336.9,498.7,337.3z"/>
	<path class="st4" d="M226.2,555.5c-0.6,0.6-1.4,1-2.5,1.4C224.3,556.3,225.2,555.9,226.2,555.5z"/>
	<path class="st4" d="M284,654.4c0.3,0.9,0.6,2.1,0.6,3.4C284.2,656.9,284,655.8,284,654.4z"/>
	<path class="st13" d="M561,480.6c-0.4,0.6-1.1,1.2-2,1.7C559.4,481.7,560.1,481.1,561,480.6z"/>
	<path class="st4" d="M235,690.2c0.3,1,0.4,2.2,0.3,3.5C234.9,692.7,234.9,691.5,235,690.2z"/>
	<path class="st4" d="M264,611.4c-0.8,0.4-1.8,0.7-3,0.8C261.8,611.7,262.8,611.5,264,611.4z"/>
	<path class="st8" d="M616.7,425.9c-1.8,0.8-2.3-0.4-2.3-2.1C615.2,424.2,615.9,424.9,616.7,425.9z"/>
	<path class="st8" d="M645.9,400.4c-0.9-1.6,0.5-2.1,1.9-2.8C648.6,399.2,647.4,399.8,645.9,400.4z"/>
	<path class="st4" d="M192.5,577c-0.4,0.9-1,1.9-1.8,3C191,579,191.6,578.1,192.5,577z"/>
	<path class="st4" d="M319.9,625.6c-0.9,0-1.9-0.2-3.1-0.8C317.8,624.8,318.8,625.1,319.9,625.6z"/>
	<path class="st12" d="M453,598.1c0.8-0.1,1.4,0.1,2.3,0.3C454.4,600.3,453.6,600.2,453,598.1z"/>
	<path class="st14" d="M345.4,477.1c-0.4,0.5-0.9,0.9-1.7,1.3C343.2,476.9,344,476.6,345.4,477.1z"/>
	<path class="st4" d="M331.3,651.4c-0.3-0.7-0.4-1.6-0.3-2.7C331.3,649.5,331.4,650.3,331.3,651.4z"/>
	<path class="st14" d="M340,480.5c-0.3,0.5-0.8,1-1.6,1.4C338.7,481.3,339.2,480.9,340,480.5z"/>
	<path class="st14" d="M410.3,590.7c0.3-0.6,0.9-1.1,1.7-1.4C411.7,589.9,411.1,590.4,410.3,590.7z"/>
	<path class="st14" d="M354,651.7c0.4,0.5,0.7,1.1,0.8,1.9C354.4,653.1,354.1,652.5,354,651.7z"/>
	<path class="st14" d="M397.2,632.1c-0.6-0.4-1-1-1.3-1.8C396.4,630.7,396.8,631.3,397.2,632.1z"/>
	<path class="st13" d="M555.9,484.2c-0.2,0.5-0.6,1-1.3,1.4C554.8,485,555.2,484.6,555.9,484.2z"/>
	<path class="st4" d="M201.8,568.6c-0.2,0.6-0.6,1.1-1.2,1.6C200.7,569.6,201.1,569.1,201.8,568.6z"/>
	<path class="st4" d="M230.7,554.3c-0.5,0.4-1.1,0.7-1.9,0.8C229.2,554.7,229.9,554.4,230.7,554.3z"/>
	<path class="st14" d="M316,513.8c0.4,0.5,0.7,1.1,0.8,2C316.3,515.3,316.1,514.6,316,513.8z"/>
	<path class="st14" d="M393.5,640.4c0.3-0.6,0.9-1.1,1.7-1.4C394.9,639.5,394.4,640,393.5,640.4z"/>
	<path class="st4" d="M269,589.9c0.4-0.5,1-0.8,1.9-1.3C271.6,590.3,271.1,591.1,269,589.9z"/>
	<path class="st4" d="M268.9,566.1c-0.3-0.7-0.3-1.5-0.2-2.6C268.9,564.2,269,565.1,268.9,566.1z"/>
	<path class="st14" d="M397.7,636.8c-0.2-0.7-0.3-1.5-0.1-2.5C397.9,634.9,397.9,635.7,397.7,636.8z"/>
	<path class="st8" d="M628.2,369.1c-0.4-0.1-0.7-0.3-0.9-0.7C627.7,368.5,628,368.7,628.2,369.1z"/>
	<path class="st4" d="M319.4,689.7c-0.1-0.5,0-1.1,0.4-1.9C319.9,688.3,319.8,688.9,319.4,689.7z"/>
	<path class="st17" d="M434.8,247c0.4,0.1,0.7,0.3,0.9,0.7C435.3,247.7,435.1,247.4,434.8,247z"/>
	<path class="st17" d="M443.3,259.3c0.4,0.1,0.7,0.3,0.8,0.7C443.8,260,443.6,259.7,443.3,259.3z"/>
	<path class="st4" d="M234.7,699.1c0.3,0.4,0.4,1,0.4,1.7C234.8,700.5,234.7,699.9,234.7,699.1z"/>
	<path class="st4" d="M257.6,716c0.5-0.2,1.2-0.1,2,0.1C259.1,716.2,258.4,716.2,257.6,716z"/>
	<path class="st17" d="M452.3,272.3c0.4,0.1,0.7,0.3,0.8,0.7C452.8,273,452.5,272.7,452.3,272.3z"/>
	<path class="st14" d="M442.9,595.5c0.5-0.1,1.1,0.1,1.8,0.6C444.2,596.1,443.6,595.9,442.9,595.5z"/>
	<path class="st13" d="M541.8,493.5c-0.1,0.4-0.3,0.7-0.7,0.9C541.2,494,541.4,493.7,541.8,493.5z"/>
	<path class="st14" d="M319.5,526.7c0.4,0.2,0.6,0.5,0.7,1.1C319.9,527.6,319.6,527.2,319.5,526.7z"/>
	<path class="st14" d="M320.4,530.1c0.3,0.3,0.6,0.6,0.6,1.2C320.7,531,320.5,530.6,320.4,530.1z"/>
	<path class="st4" d="M268.3,559.5c-0.2-0.5-0.1-1.1,0.2-1.9C268.6,558.1,268.5,558.7,268.3,559.5z"/>
	<path class="st14" d="M318.3,522.4c0.3,0.3,0.5,0.6,0.6,1.2C318.5,523.3,318.4,522.9,318.3,522.4z"/>
	<path class="st14" d="M317.4,519c0.3,0.2,0.6,0.6,0.7,1.1C317.8,519.8,317.5,519.5,317.4,519z"/>
	<path class="st14" d="M321.6,534.4c0.4,0.2,0.6,0.5,0.7,1C322,535.3,321.7,534.9,321.6,534.4z"/>
	<path class="st4" d="M269.8,570.3c-1.3,0-1.3-0.6-0.4-1.5C269.7,569.2,269.8,569.6,269.8,570.3z"/>
	<path class="st4" d="M271.1,585.5c-0.2-0.5-0.1-1.1,0.1-1.9C271.4,584.1,271.3,584.7,271.1,585.5z"/>
	<path class="st8" d="M650.6,396.5c0-0.5,0.3-1,0.7-1.6C651.3,395.3,651.1,395.9,650.6,396.5z"/>
	<path class="st4" d="M278.4,610.1c-0.4,0.3-0.9,0.4-1.6,0.3C277.2,610.1,277.8,610,278.4,610.1z"/>
	<path class="st19" d="M669.3,409.6c-0.1,0.6-0.4,1-1,1.3C668.4,410.4,668.8,410,669.3,409.6z"/>
	<path class="st19" d="M673,408.9c-0.5,0.3-1,0.3-1.7,0.1C671.7,407.4,672.3,408,673,408.9z"/>
	<path class="st4" d="M291.4,611.7c-0.5,0.2-1.1,0.1-1.8-0.1C290.1,611.4,290.7,611.4,291.4,611.7z"/>
	<path class="st12" d="M473.5,566.7c-0.5,0.1-1.3,0-2.1-0.4C472,566.1,472.7,566.3,473.5,566.7z"/>
	<path class="st13" d="M534.4,498.3c-0.1,0.4-0.4,0.7-0.8,0.9C533.7,498.8,534,498.5,534.4,498.3z"/>
	<path class="st13" d="M529.2,501.9c-0.1,0.4-0.3,0.7-0.7,0.9C528.5,502.4,528.8,502.1,529.2,501.9z"/>
	<path class="st13" d="M521,507.1c-0.1,0.4-0.4,0.7-0.8,0.9C520.3,507.6,520.5,507.3,521,507.1z"/>
	<path class="st14" d="M341,604.6c0.4,0.3,0.6,0.6,0.6,1.2C341.3,605.5,341.1,605.1,341,604.6z"/>
	<path class="st14" d="M314,497.7c-0.1,0.4-0.3,0.8-0.7,1.1C313.3,498.4,313.6,498,314,497.7z"/>
	<path class="st14" d="M342.2,608.9c0.3,0.2,0.6,0.5,0.7,1.1C342.5,609.8,342.3,609.4,342.2,608.9z"/>
	<path class="st14" d="M343.1,612.3c0.3,0.3,0.6,0.6,0.6,1.2C343.3,613.2,343.1,612.8,343.1,612.3z"/>
	<path class="st14" d="M327.4,488.9c-0.1,0.4-0.4,0.7-0.9,0.9C326.6,489.4,326.9,489.1,327.4,488.9z"/>
	<path class="st12" d="M463.5,559.1c-0.6,0.1-1.3,0-2.1-0.4C461.9,558.6,462.6,558.7,463.5,559.1z"/>
	<path class="st4" d="M237.7,677c-0.2,0.3-0.5,0.5-1.1,0.7C236.7,677.3,237.2,677.1,237.7,677z"/>
	<path class="st12" d="M466.7,561.4c-0.6,0.1-1.3,0-2.1-0.4C465.2,560.8,465.9,561,466.7,561.4z"/>
	<path class="st4" d="M258.2,676c-0.3,0.3-0.9,0.6-1.6,0.6C256.9,676.2,257.4,676,258.2,676z"/>
	<path class="st14" d="M356.1,655.1c-0.1,0,0-0.3,0-0.3s0.3,0,0.3,0.2C356.4,655.1,356.1,655.1,356.1,655.1z"/>
	<path class="st20" d="M345.7,307.2c0.3,0,0.5,0,0.8,0.1c5.4,1,9.6,4.3,13.6,7.7c8.2,7.2,13.6,16.2,15.9,26.7
		c3.2,14.6,0.3,27.8-10.8,38.7c-10.2,10.1-22.6,13.5-37,10.5c-0.5-0.1-0.9-0.3-1.4-0.6c-5.3-3.3-10.1-6.3-14-10.6
		c-3.3-3.5-6.3-7.2-8.2-11.5c-2.1-4.7-3.7-9.7-4.7-14.7c-1.3-5.8-0.7-11.8,1.2-17.5c2.3-6.6,5.7-12.5,11-17.4
		c4.5-4.2,9.5-7.2,15.3-9.3C333.3,307.3,339.5,307.1,345.7,307.2z"/>
	<path class="st17" d="M351.2,308.7c-6.2,0.1-12.5,0.3-18.6,2.5c-5.8,2-10.8,5.1-15.3,9.3c-5.3,4.9-8.8,10.9-11,17.4
		c-1.9,5.6-2.5,11.6-1.2,17.5c1.1,5,2.6,10,4.7,14.7c1.9,4.3,5,8,8.2,11.5c4.1,4.5,9.1,7.5,14.4,10.7c-5.1,0.5-9.5-2.1-13.6-4.7
		c-14.4-9-22.9-21.7-24.1-38.6c-1.4-19.5,12.5-38.3,32.6-42.4C335.5,304.9,343.4,305.4,351.2,308.7z"/>
	<path class="st21" d="M364.2,531c1.9,1.3,3.8,2.6,5.5,4c7.5,6,14.9,12.1,22.3,18.2c0.5,0.4,1,1,2,1.9c-5.8,4.5-11.7,8.4-18.2,11.8
		c-1.5-3.5-2.8-6.7-3.5-10c-1.5-7-4.7-13.5-7-20.2C364.8,534.9,364.6,532.9,364.2,531z"/>
	<path class="st22" d="M364.1,530.7c0.5,2.2,0.7,4.2,1.3,6.1c2.3,6.7,5.5,13.2,7,20.2c0.7,3.3,2,6.5,3.1,10c-6.4,6-6.8,5.9-9.5-2
		c-4.9-14.3-9.9-28.6-14.8-43c-0.3-0.9-0.5-1.9-0.4-3.1C355.7,522.1,359.8,526.2,364.1,530.7z"/>
	<path class="st14" d="M380.2,608.2c3,1.2,2.6,4.4,3.5,6.9c2,5.1,3.5,10.3,5.3,15.5c0.8,2.1,0.7,4.1-1.2,5.5
		c-4.7,3.3-9.5,6.3-14.3,9.4c-0.5,0.3-1.1,0.4-2,0.5c4.1-3.2,8.5-6.4,13-9.4c3.8-2.6,3.9-2.7,2.5-7.1
		C384.6,622.5,382.4,615.5,380.2,608.2z"/>
	<path class="st14" d="M383.7,598.5c0.2,0.5,0.3,1.3,0,1.5c-2.6,1.2-3.3,3.3-3.8,6c-1.9-2.9-1.8-3.8,0.5-5.6
		C381.3,599.7,382.3,599.2,383.7,598.5z"/>
	<path class="st19" d="M684,439c0.2,2.5-2.1,2.6-4.2,3.4C679.9,440.2,682,439.9,684,439z"/>
	<path class="st19" d="M630.4,474.3c0.1,2.4-2.1,2.5-4.1,3.4C626.2,475.4,628.4,475.1,630.4,474.3z"/>
	<path class="st19" d="M649.7,461.7c-0.8,0.9-1.8,1.7-3.2,2.5C647.3,463.2,648.4,462.4,649.7,461.7z"/>
	<path class="st19" d="M684.5,425.9c2.2-0.4,2.4,1.5,3.1,3.2C686.5,428.4,685.5,427.3,684.5,425.9z"/>
	<path class="st19" d="M643.8,465.4c0.3,2.1-1.6,2.3-3.4,3C640.3,466.5,642,466.1,643.8,465.4z"/>
	<path class="st19" d="M670.6,447.8c0.3,2.2-1.6,2.3-3.3,3C667.1,448.9,668.8,448.5,670.6,447.8z"/>
	<path class="st19" d="M657.2,456.6c0.3,2.1-1.6,2.3-3.4,3C653.7,457.6,655.4,457.3,657.2,456.6z"/>
	<path class="st19" d="M675,444.9c-0.5,0.8-1.3,1.5-2.4,2.1C673.1,446.2,673.9,445.5,675,444.9z"/>
	<path class="st19" d="M688.5,436c-0.5,0.8-1.4,1.6-2.5,2.2C686.5,437.4,687.3,436.6,688.5,436z"/>
	<path class="st19" d="M623.8,478.9c-0.4,0.6-0.9,1.2-1.8,1.6C622.3,479.8,622.9,479.3,623.8,478.9z"/>
	<path class="st19" d="M661.6,453.7c-0.3,0.7-0.9,1.2-1.7,1.6C660.2,454.7,660.8,454.2,661.6,453.7z"/>
	<path class="st19" d="M636.4,470.5c-0.3,0.6-0.9,1.2-1.8,1.6C635,471.5,635.6,470.9,636.4,470.5z"/>
	<path class="st19" d="M681.5,421.6c0.7,0.3,1.3,0.9,1.7,1.7C682.5,422.9,682,422.4,681.5,421.6z"/>
	<path class="st4" d="M296.9,697.9c-0.9,2.9-4,4.1-6.4,5.5c-4.1,2.3-8.8,3.6-13.5,5.2C283.3,705,289.9,701.5,296.9,697.9z"/>
	<path class="st4" d="M217.2,607c0.4,1.1,0.5,2.3,0.5,3.8C217.4,609.7,217.2,608.4,217.2,607z"/>
	<path class="st8" d="M308,618.9C308,619,308,618.9,308,618.9z"/>
</g>
</svg>
